{
	"asset":{
		"generator":"Khronos glTF Blender I/O v3.6.27",
		"version":"2.0"
	},
	"scene":0,
	"scenes":[
		{
			"name":"Scene",
			"nodes":[
				0,
				1
			]
		}
	],
	"nodes":[
		{
			"mesh":0,
			"name":"1",
			"rotation":[
				0.70710688829422,
				0,
				0,
				0.7071066498756409
			],
			"scale":[
				0.009999999776482582,
				0.009999999776482582,
				0.009999999776482582
			],
			"translation":[
				-1.0064417123794556,
				1.8759816884994507,
				-6.348236083984375
			]
		},
		{
			"mesh":1,
			"name":"Plane",
			"translation":[
				0,
				-2,
				0
			]
		}
	],
	"materials":[
		{
			"doubleSided":true,
			"name":"1",
			"pbrMetallicRoughness":{
				"baseColorFactor":[
					0.800000011920929,
					0.800000011920929,
					0.800000011920929,
					1
				],
				"metallicFactor":0,
				"roughnessFactor":0.5
			}
		}
	],
	"meshes":[
		{
			"name":"Mesh",
			"primitives":[
				{
					"attributes":{
						"POSITION":0,
						"NORMAL":1,
						"TEXCOORD_0":2
					},
					"indices":3,
					"material":0
				}
			]
		},
		{
			"name":"Plane",
			"primitives":[
				{
					"attributes":{
						"POSITION":4,
						"NORMAL":5,
						"TEXCOORD_0":6
					},
					"indices":7
				}
			]
		}
	],
	"accessors":[
		{
			"bufferView":0,
			"componentType":5126,
			"count":4935,
			"max":[
				1771.146728515625,
				2230.2138671875,
				308.8037109375
			],
			"min":[
				-2799.13916015625,
				-545.0169067382812,
				-555.7470703125
			],
			"type":"VEC3"
		},
		{
			"bufferView":1,
			"componentType":5126,
			"count":4935,
			"type":"VEC3"
		},
		{
			"bufferView":2,
			"componentType":5126,
			"count":4935,
			"type":"VEC2"
		},
		{
			"bufferView":3,
			"componentType":5123,
			"count":8790,
			"type":"SCALAR"
		},
		{
			"bufferView":4,
			"componentType":5126,
			"count":4,
			"max":[
				50,
				0,
				50
			],
			"min":[
				-50,
				0,
				-50
			],
			"type":"VEC3"
		},
		{
			"bufferView":5,
			"componentType":5126,
			"count":4,
			"type":"VEC3"
		},
		{
			"bufferView":6,
			"componentType":5126,
			"count":4,
			"type":"VEC2"
		},
		{
			"bufferView":7,
			"componentType":5123,
			"count":6,
			"type":"SCALAR"
		}
	],
	"bufferViews":[
		{
			"buffer":0,
			"byteLength":59220,
			"byteOffset":0,
			"target":34962
		},
		{
			"buffer":0,
			"byteLength":59220,
			"byteOffset":59220,
			"target":34962
		},
		{
			"buffer":0,
			"byteLength":39480,
			"byteOffset":118440,
			"target":34962
		},
		{
			"buffer":0,
			"byteLength":17580,
			"byteOffset":157920,
			"target":34963
		},
		{
			"buffer":0,
			"byteLength":48,
			"byteOffset":175500,
			"target":34962
		},
		{
			"buffer":0,
			"byteLength":48,
			"byteOffset":175548,
			"target":34962
		},
		{
			"buffer":0,
			"byteLength":32,
			"byteOffset":175596,
			"target":34962
		},
		{
			"buffer":0,
			"byteLength":12,
			"byteOffset":175628,
			"target":34963
		}
	],
	"buffers":[
		{
			"byteLength":175640,
			"uri":"data:application/octet-stream;base64,"
		}
	]
}
