{
	"asset":{
		"generator":"Khronos glTF Blender I/O v3.6.27",
		"version":"2.0"
	},
	"scene":0,
	"scenes":[
		{
			"name":"Scene",
			"nodes":[
				0,
				1,
				2,
				3,
				4,
				5,
				6,
				7,
				8,
				9,
				10,
				11,
				12,
				13
			]
		}
	],
	"nodes":[
		{
			"mesh":0,
			"name":"Dom",
			"scale":[
				3.7784273624420166,
				3.7784273624420166,
				3.7784273624420166
			]
		},
		{
			"mesh":1,
			"name":"Terrein",
			"scale":[
				3.3040316104888916,
				3.3040316104888916,
				3.3040316104888916
			]
		},
		{
			"mesh":2,
			"name":"particle.015",
			"scale":[
				0.0010000000474974513,
				0.0010000000474974513,
				0.0010000000474974513
			],
			"translation":[
				0.06974819302558899,
				-2.320040702819824,
				0.02760983258485794
			]
		},
		{
			"mesh":2,
			"name":"particle.016",
			"scale":[
				0.0010000000474974513,
				0.0010000000474974513,
				0.0010000000474974513
			],
			"translation":[
				-0.6799783110618591,
				-0.3179287910461426,
				-0.8313245177268982
			]
		},
		{
			"mesh":2,
			"name":"particle.017",
			"scale":[
				0.0010000000474974513,
				0.0010000000474974513,
				0.0010000000474974513
			],
			"translation":[
				-0.18755817413330078,
				-1.264194369316101,
				-2.014387845993042
			]
		},
		{
			"mesh":2,
			"name":"particle.018",
			"scale":[
				0.0010000000474974513,
				0.0010000000474974513,
				0.0010000000474974513
			],
			"translation":[
				-0.7499731183052063,
				1.1111009120941162,
				-2.517113208770752
			]
		},
		{
			"mesh":2,
			"name":"particle.019",
			"scale":[
				0.0010000000474974513,
				0.0010000000474974513,
				0.0010000000474974513
			],
			"translation":[
				0.014321327209472656,
				1.9691979885101318,
				-0.0009031593799591064
			]
		},
		{
			"mesh":2,
			"name":"particle.020",
			"rotation":[
				0.08701293170452118,
				0.5893102288246155,
				0.1173233911395073,
				0.7945926189422607
			],
			"scale":[
				0.0010000001639127731,
				0.0010000000474974513,
				0.0010000001639127731
			],
			"translation":[
				0.06293822079896927,
				-2.4475269317626953,
				-0.16902203857898712
			]
		},
		{
			"mesh":2,
			"name":"particle.021",
			"rotation":[
				0.14367830753326416,
				-0.3047151565551758,
				-0.4015539884567261,
				0.8516217470169067
			],
			"scale":[
				0.0010000001639127731,
				0.0010000000474974513,
				0.0010000000474974513
			],
			"translation":[
				0.09202281385660172,
				-2.6247308254241943,
				0.08939696103334427
			]
		},
		{
			"mesh":2,
			"name":"particle.022",
			"rotation":[
				-0.21877291798591614,
				-0.8771175146102905,
				0.1034717857837677,
				0.4148455560207367
			],
			"scale":[
				0.0010000000474974513,
				0.0010000000474974513,
				0.0010000000474974513
			],
			"translation":[
				-0.0985216572880745,
				-2.4006991386413574,
				0.12832017242908478
			]
		},
		{
			"mesh":2,
			"name":"particle.023",
			"rotation":[
				-0.4409841299057007,
				0.59543377161026,
				-0.3996848464012146,
				0.539669930934906
			],
			"scale":[
				0.0009999999310821295,
				0.0010000000474974513,
				0.0010000000474974513
			],
			"translation":[
				-0.001633895793929696,
				-2.6710927486419678,
				-0.04251986742019653
			]
		},
		{
			"mesh":2,
			"name":"particle.024",
			"rotation":[
				0.007165249437093735,
				-0.14655570685863495,
				-0.04830411449074745,
				0.9879964590072632
			],
			"scale":[
				0.0010000001639127731,
				0.0010000000474974513,
				0.0010000000474974513
			],
			"translation":[
				0.17261163890361786,
				-2.494490623474121,
				0.0685080736875534
			]
		},
		{
			"mesh":2,
			"name":"particle.025",
			"rotation":[
				-0.2187730222940445,
				0.8771174550056458,
				-0.10347186028957367,
				0.41484561562538147
			],
			"scale":[
				0.001000000280328095,
				0.0010000000474974513,
				0.001000000280328095
			],
			"translation":[
				-0.10809969156980515,
				-2.5755739212036133,
				-0.12331025302410126
			]
		},
		{
			"mesh":2,
			"name":"particle.026",
			"rotation":[
				0.10822959244251251,
				-0.7330041527748108,
				-0.09809356182813644,
				0.6643560528755188
			],
			"scale":[
				0.0010000001639127731,
				0.0010000000474974513,
				0.0010000001639127731
			],
			"translation":[
				-0.027626611292362213,
				-2.5552141666412354,
				0.171391561627388
			]
		}
	],
	"animations":[
		{
			"channels":[
				{
					"sampler":0,
					"target":{
						"node":2,
						"path":"translation"
					}
				},
				{
					"sampler":1,
					"target":{
						"node":2,
						"path":"rotation"
					}
				},
				{
					"sampler":2,
					"target":{
						"node":2,
						"path":"scale"
					}
				}
			],
			"name":"particle.015Action.005",
			"samplers":[
				{
					"input":12,
					"interpolation":"LINEAR",
					"output":13
				},
				{
					"input":14,
					"interpolation":"STEP",
					"output":15
				},
				{
					"input":12,
					"interpolation":"LINEAR",
					"output":16
				}
			]
		},
		{
			"channels":[
				{
					"sampler":0,
					"target":{
						"node":3,
						"path":"translation"
					}
				},
				{
					"sampler":1,
					"target":{
						"node":3,
						"path":"rotation"
					}
				},
				{
					"sampler":2,
					"target":{
						"node":3,
						"path":"scale"
					}
				}
			],
			"name":"particle.016Action.005",
			"samplers":[
				{
					"input":12,
					"interpolation":"LINEAR",
					"output":17
				},
				{
					"input":14,
					"interpolation":"STEP",
					"output":18
				},
				{
					"input":12,
					"interpolation":"LINEAR",
					"output":19
				}
			]
		},
		{
			"channels":[
				{
					"sampler":0,
					"target":{
						"node":4,
						"path":"translation"
					}
				},
				{
					"sampler":1,
					"target":{
						"node":4,
						"path":"rotation"
					}
				},
				{
					"sampler":2,
					"target":{
						"node":4,
						"path":"scale"
					}
				}
			],
			"name":"particle.017Action.005",
			"samplers":[
				{
					"input":12,
					"interpolation":"LINEAR",
					"output":20
				},
				{
					"input":14,
					"interpolation":"STEP",
					"output":21
				},
				{
					"input":12,
					"interpolation":"LINEAR",
					"output":22
				}
			]
		},
		{
			"channels":[
				{
					"sampler":0,
					"target":{
						"node":5,
						"path":"translation"
					}
				},
				{
					"sampler":1,
					"target":{
						"node":5,
						"path":"rotation"
					}
				},
				{
					"sampler":2,
					"target":{
						"node":5,
						"path":"scale"
					}
				}
			],
			"name":"particle.018Action.005",
			"samplers":[
				{
					"input":12,
					"interpolation":"LINEAR",
					"output":23
				},
				{
					"input":14,
					"interpolation":"STEP",
					"output":24
				},
				{
					"input":12,
					"interpolation":"LINEAR",
					"output":25
				}
			]
		},
		{
			"channels":[
				{
					"sampler":0,
					"target":{
						"node":6,
						"path":"translation"
					}
				},
				{
					"sampler":1,
					"target":{
						"node":6,
						"path":"rotation"
					}
				},
				{
					"sampler":2,
					"target":{
						"node":6,
						"path":"scale"
					}
				}
			],
			"name":"particle.019Action.005",
			"samplers":[
				{
					"input":12,
					"interpolation":"LINEAR",
					"output":26
				},
				{
					"input":14,
					"interpolation":"STEP",
					"output":27
				},
				{
					"input":12,
					"interpolation":"LINEAR",
					"output":28
				}
			]
		},
		{
			"channels":[
				{
					"sampler":0,
					"target":{
						"node":7,
						"path":"translation"
					}
				},
				{
					"sampler":1,
					"target":{
						"node":7,
						"path":"rotation"
					}
				},
				{
					"sampler":2,
					"target":{
						"node":7,
						"path":"scale"
					}
				}
			],
			"name":"particle.020Action.005",
			"samplers":[
				{
					"input":12,
					"interpolation":"LINEAR",
					"output":29
				},
				{
					"input":12,
					"interpolation":"LINEAR",
					"output":30
				},
				{
					"input":12,
					"interpolation":"LINEAR",
					"output":31
				}
			]
		},
		{
			"channels":[
				{
					"sampler":0,
					"target":{
						"node":8,
						"path":"translation"
					}
				},
				{
					"sampler":1,
					"target":{
						"node":8,
						"path":"rotation"
					}
				},
				{
					"sampler":2,
					"target":{
						"node":8,
						"path":"scale"
					}
				}
			],
			"name":"particle.021Action.005",
			"samplers":[
				{
					"input":12,
					"interpolation":"LINEAR",
					"output":32
				},
				{
					"input":12,
					"interpolation":"LINEAR",
					"output":33
				},
				{
					"input":12,
					"interpolation":"LINEAR",
					"output":34
				}
			]
		},
		{
			"channels":[
				{
					"sampler":0,
					"target":{
						"node":9,
						"path":"translation"
					}
				},
				{
					"sampler":1,
					"target":{
						"node":9,
						"path":"rotation"
					}
				},
				{
					"sampler":2,
					"target":{
						"node":9,
						"path":"scale"
					}
				}
			],
			"name":"particle.022Action.005",
			"samplers":[
				{
					"input":12,
					"interpolation":"LINEAR",
					"output":35
				},
				{
					"input":12,
					"interpolation":"LINEAR",
					"output":36
				},
				{
					"input":12,
					"interpolation":"LINEAR",
					"output":37
				}
			]
		},
		{
			"channels":[
				{
					"sampler":0,
					"target":{
						"node":10,
						"path":"translation"
					}
				},
				{
					"sampler":1,
					"target":{
						"node":10,
						"path":"rotation"
					}
				},
				{
					"sampler":2,
					"target":{
						"node":10,
						"path":"scale"
					}
				}
			],
			"name":"particle.023Action.005",
			"samplers":[
				{
					"input":12,
					"interpolation":"LINEAR",
					"output":38
				},
				{
					"input":12,
					"interpolation":"LINEAR",
					"output":39
				},
				{
					"input":12,
					"interpolation":"LINEAR",
					"output":40
				}
			]
		},
		{
			"channels":[
				{
					"sampler":0,
					"target":{
						"node":11,
						"path":"translation"
					}
				},
				{
					"sampler":1,
					"target":{
						"node":11,
						"path":"rotation"
					}
				},
				{
					"sampler":2,
					"target":{
						"node":11,
						"path":"scale"
					}
				}
			],
			"name":"particle.024Action.005",
			"samplers":[
				{
					"input":12,
					"interpolation":"LINEAR",
					"output":41
				},
				{
					"input":12,
					"interpolation":"LINEAR",
					"output":42
				},
				{
					"input":12,
					"interpolation":"LINEAR",
					"output":43
				}
			]
		},
		{
			"channels":[
				{
					"sampler":0,
					"target":{
						"node":12,
						"path":"translation"
					}
				},
				{
					"sampler":1,
					"target":{
						"node":12,
						"path":"rotation"
					}
				},
				{
					"sampler":2,
					"target":{
						"node":12,
						"path":"scale"
					}
				}
			],
			"name":"particle.025Action.005",
			"samplers":[
				{
					"input":12,
					"interpolation":"LINEAR",
					"output":44
				},
				{
					"input":12,
					"interpolation":"LINEAR",
					"output":45
				},
				{
					"input":12,
					"interpolation":"LINEAR",
					"output":46
				}
			]
		},
		{
			"channels":[
				{
					"sampler":0,
					"target":{
						"node":13,
						"path":"translation"
					}
				},
				{
					"sampler":1,
					"target":{
						"node":13,
						"path":"rotation"
					}
				},
				{
					"sampler":2,
					"target":{
						"node":13,
						"path":"scale"
					}
				}
			],
			"name":"particle.026Action.005",
			"samplers":[
				{
					"input":12,
					"interpolation":"LINEAR",
					"output":47
				},
				{
					"input":12,
					"interpolation":"LINEAR",
					"output":48
				},
				{
					"input":12,
					"interpolation":"LINEAR",
					"output":49
				}
			]
		}
	],
	"meshes":[
		{
			"name":"Sphere",
			"primitives":[
				{
					"attributes":{
						"POSITION":0,
						"NORMAL":1,
						"TEXCOORD_0":2
					},
					"indices":3
				}
			]
		},
		{
			"name":"Sphere.003",
			"primitives":[
				{
					"attributes":{
						"POSITION":4,
						"NORMAL":5,
						"TEXCOORD_0":6
					},
					"indices":7
				}
			]
		},
		{
			"name":"Sphere.006",
			"primitives":[
				{
					"attributes":{
						"POSITION":8,
						"NORMAL":9,
						"TEXCOORD_0":10
					},
					"indices":11
				}
			]
		}
	],
	"accessors":[
		{
			"bufferView":0,
			"componentType":5126,
			"count":1984,
			"max":[
				0.9999997019767761,
				1,
				0.9999993443489075
			],
			"min":[
				-0.9999990463256836,
				-1,
				-1
			],
			"type":"VEC3"
		},
		{
			"bufferView":1,
			"componentType":5126,
			"count":1984,
			"type":"VEC3"
		},
		{
			"bufferView":2,
			"componentType":5126,
			"count":1984,
			"type":"VEC2"
		},
		{
			"bufferView":3,
			"componentType":5123,
			"count":2880,
			"type":"SCALAR"
		},
		{
			"bufferView":4,
			"componentType":5126,
			"count":1118,
			"max":[
				1.0099997520446777,
				1.0099999904632568,
				1.009999394416809
			],
			"min":[
				-1.0099990367889404,
				-1.0099999904632568,
				-1.0099999904632568
			],
			"type":"VEC3"
		},
		{
			"bufferView":5,
			"componentType":5126,
			"count":1118,
			"type":"VEC3"
		},
		{
			"bufferView":6,
			"componentType":5126,
			"count":1118,
			"type":"VEC2"
		},
		{
			"bufferView":7,
			"componentType":5123,
			"count":5760,
			"type":"SCALAR"
		},
		{
			"bufferView":8,
			"componentType":5126,
			"count":1984,
			"max":[
				0.9999997019767761,
				1,
				0.9999993443489075
			],
			"min":[
				-0.9999990463256836,
				-1,
				-1
			],
			"type":"VEC3"
		},
		{
			"bufferView":9,
			"componentType":5126,
			"count":1984,
			"type":"VEC3"
		},
		{
			"bufferView":10,
			"componentType":5126,
			"count":1984,
			"type":"VEC2"
		},
		{
			"bufferView":11,
			"componentType":5123,
			"count":2880,
			"type":"SCALAR"
		},
		{
			"bufferView":12,
			"componentType":5126,
			"count":151,
			"max":[
				6.25
			],
			"min":[
				0
			],
			"type":"SCALAR"
		},
		{
			"bufferView":13,
			"componentType":5126,
			"count":151,
			"type":"VEC3"
		},
		{
			"bufferView":14,
			"componentType":5126,
			"count":2,
			"max":[
				6.25
			],
			"min":[
				0
			],
			"type":"SCALAR"
		},
		{
			"bufferView":15,
			"componentType":5126,
			"count":2,
			"type":"VEC4"
		},
		{
			"bufferView":16,
			"componentType":5126,
			"count":151,
			"type":"VEC3"
		},
		{
			"bufferView":17,
			"componentType":5126,
			"count":151,
			"type":"VEC3"
		},
		{
			"bufferView":18,
			"componentType":5126,
			"count":2,
			"type":"VEC4"
		},
		{
			"bufferView":19,
			"componentType":5126,
			"count":151,
			"type":"VEC3"
		},
		{
			"bufferView":20,
			"componentType":5126,
			"count":151,
			"type":"VEC3"
		},
		{
			"bufferView":21,
			"componentType":5126,
			"count":2,
			"type":"VEC4"
		},
		{
			"bufferView":22,
			"componentType":5126,
			"count":151,
			"type":"VEC3"
		},
		{
			"bufferView":23,
			"componentType":5126,
			"count":151,
			"type":"VEC3"
		},
		{
			"bufferView":24,
			"componentType":5126,
			"count":2,
			"type":"VEC4"
		},
		{
			"bufferView":25,
			"componentType":5126,
			"count":151,
			"type":"VEC3"
		},
		{
			"bufferView":26,
			"componentType":5126,
			"count":151,
			"type":"VEC3"
		},
		{
			"bufferView":27,
			"componentType":5126,
			"count":2,
			"type":"VEC4"
		},
		{
			"bufferView":28,
			"componentType":5126,
			"count":151,
			"type":"VEC3"
		},
		{
			"bufferView":29,
			"componentType":5126,
			"count":151,
			"type":"VEC3"
		},
		{
			"bufferView":30,
			"componentType":5126,
			"count":151,
			"type":"VEC4"
		},
		{
			"bufferView":31,
			"componentType":5126,
			"count":151,
			"type":"VEC3"
		},
		{
			"bufferView":32,
			"componentType":5126,
			"count":151,
			"type":"VEC3"
		},
		{
			"bufferView":33,
			"componentType":5126,
			"count":151,
			"type":"VEC4"
		},
		{
			"bufferView":34,
			"componentType":5126,
			"count":151,
			"type":"VEC3"
		},
		{
			"bufferView":35,
			"componentType":5126,
			"count":151,
			"type":"VEC3"
		},
		{
			"bufferView":36,
			"componentType":5126,
			"count":151,
			"type":"VEC4"
		},
		{
			"bufferView":37,
			"componentType":5126,
			"count":151,
			"type":"VEC3"
		},
		{
			"bufferView":38,
			"componentType":5126,
			"count":151,
			"type":"VEC3"
		},
		{
			"bufferView":39,
			"componentType":5126,
			"count":151,
			"type":"VEC4"
		},
		{
			"bufferView":40,
			"componentType":5126,
			"count":151,
			"type":"VEC3"
		},
		{
			"bufferView":41,
			"componentType":5126,
			"count":151,
			"type":"VEC3"
		},
		{
			"bufferView":42,
			"componentType":5126,
			"count":151,
			"type":"VEC4"
		},
		{
			"bufferView":43,
			"componentType":5126,
			"count":151,
			"type":"VEC3"
		},
		{
			"bufferView":44,
			"componentType":5126,
			"count":151,
			"type":"VEC3"
		},
		{
			"bufferView":45,
			"componentType":5126,
			"count":151,
			"type":"VEC4"
		},
		{
			"bufferView":46,
			"componentType":5126,
			"count":151,
			"type":"VEC3"
		},
		{
			"bufferView":47,
			"componentType":5126,
			"count":151,
			"type":"VEC3"
		},
		{
			"bufferView":48,
			"componentType":5126,
			"count":151,
			"type":"VEC4"
		},
		{
			"bufferView":49,
			"componentType":5126,
			"count":151,
			"type":"VEC3"
		}
	],
	"bufferViews":[
		{
			"buffer":0,
			"byteLength":23808,
			"byteOffset":0,
			"target":34962
		},
		{
			"buffer":0,
			"byteLength":23808,
			"byteOffset":23808,
			"target":34962
		},
		{
			"buffer":0,
			"byteLength":15872,
			"byteOffset":47616,
			"target":34962
		},
		{
			"buffer":0,
			"byteLength":5760,
			"byteOffset":63488,
			"target":34963
		},
		{
			"buffer":0,
			"byteLength":13416,
			"byteOffset":69248,
			"target":34962
		},
		{
			"buffer":0,
			"byteLength":13416,
			"byteOffset":82664,
			"target":34962
		},
		{
			"buffer":0,
			"byteLength":8944,
			"byteOffset":96080,
			"target":34962
		},
		{
			"buffer":0,
			"byteLength":11520,
			"byteOffset":105024,
			"target":34963
		},
		{
			"buffer":0,
			"byteLength":23808,
			"byteOffset":116544,
			"target":34962
		},
		{
			"buffer":0,
			"byteLength":23808,
			"byteOffset":140352,
			"target":34962
		},
		{
			"buffer":0,
			"byteLength":15872,
			"byteOffset":164160,
			"target":34962
		},
		{
			"buffer":0,
			"byteLength":5760,
			"byteOffset":180032,
			"target":34963
		},
		{
			"buffer":0,
			"byteLength":604,
			"byteOffset":185792
		},
		{
			"buffer":0,
			"byteLength":1812,
			"byteOffset":186396
		},
		{
			"buffer":0,
			"byteLength":8,
			"byteOffset":188208
		},
		{
			"buffer":0,
			"byteLength":32,
			"byteOffset":188216
		},
		{
			"buffer":0,
			"byteLength":1812,
			"byteOffset":188248
		},
		{
			"buffer":0,
			"byteLength":1812,
			"byteOffset":190060
		},
		{
			"buffer":0,
			"byteLength":32,
			"byteOffset":191872
		},
		{
			"buffer":0,
			"byteLength":1812,
			"byteOffset":191904
		},
		{
			"buffer":0,
			"byteLength":1812,
			"byteOffset":193716
		},
		{
			"buffer":0,
			"byteLength":32,
			"byteOffset":195528
		},
		{
			"buffer":0,
			"byteLength":1812,
			"byteOffset":195560
		},
		{
			"buffer":0,
			"byteLength":1812,
			"byteOffset":197372
		},
		{
			"buffer":0,
			"byteLength":32,
			"byteOffset":199184
		},
		{
			"buffer":0,
			"byteLength":1812,
			"byteOffset":199216
		},
		{
			"buffer":0,
			"byteLength":1812,
			"byteOffset":201028
		},
		{
			"buffer":0,
			"byteLength":32,
			"byteOffset":202840
		},
		{
			"buffer":0,
			"byteLength":1812,
			"byteOffset":202872
		},
		{
			"buffer":0,
			"byteLength":1812,
			"byteOffset":204684
		},
		{
			"buffer":0,
			"byteLength":2416,
			"byteOffset":206496
		},
		{
			"buffer":0,
			"byteLength":1812,
			"byteOffset":208912
		},
		{
			"buffer":0,
			"byteLength":1812,
			"byteOffset":210724
		},
		{
			"buffer":0,
			"byteLength":2416,
			"byteOffset":212536
		},
		{
			"buffer":0,
			"byteLength":1812,
			"byteOffset":214952
		},
		{
			"buffer":0,
			"byteLength":1812,
			"byteOffset":216764
		},
		{
			"buffer":0,
			"byteLength":2416,
			"byteOffset":218576
		},
		{
			"buffer":0,
			"byteLength":1812,
			"byteOffset":220992
		},
		{
			"buffer":0,
			"byteLength":1812,
			"byteOffset":222804
		},
		{
			"buffer":0,
			"byteLength":2416,
			"byteOffset":224616
		},
		{
			"buffer":0,
			"byteLength":1812,
			"byteOffset":227032
		},
		{
			"buffer":0,
			"byteLength":1812,
			"byteOffset":228844
		},
		{
			"buffer":0,
			"byteLength":2416,
			"byteOffset":230656
		},
		{
			"buffer":0,
			"byteLength":1812,
			"byteOffset":233072
		},
		{
			"buffer":0,
			"byteLength":1812,
			"byteOffset":234884
		},
		{
			"buffer":0,
			"byteLength":2416,
			"byteOffset":236696
		},
		{
			"buffer":0,
			"byteLength":1812,
			"byteOffset":239112
		},
		{
			"buffer":0,
			"byteLength":1812,
			"byteOffset":240924
		},
		{
			"buffer":0,
			"byteLength":2416,
			"byteOffset":242736
		},
		{
			"buffer":0,
			"byteLength":1812,
			"byteOffset":245152
		}
	],
	"buffers":[
		{
			"byteLength":246964,
			"uri":"data:application/octet-stream;base64,"
		}
	]
}
