{
	"asset":{
		"generator":"Khronos glTF Blender I/O v3.6.27",
		"version":"2.0"
	},
	"scene":0,
	"scenes":[
		{
			"name":"Scene",
			"nodes":[
				0,
				1,
				2,
				3,
				4,
				5,
				6,
				7,
				8,
				9,
				10,
				11,
				12
			]
		}
	],
	"nodes":[
		{
			"mesh":0,
			"name":"Plane",
			"scale":[
				2.7103352546691895,
				2.7103352546691895,
				2.7103352546691895
			],
			"translation":[
				0,
				-5.026945114135742,
				0
			]
		},
		{
			"mesh":1,
			"name":"Dom"
		},
		{
			"mesh":2,
			"name":"Terrein"
		},
		{
			"mesh":3,
			"name":"Ball",
			"translation":[
				0.7761070132255554,
				-1.6014537811279297,
				0
			]
		},
		{
			"name":"Moving.Force.001",
			"rotation":[
				0.03721976280212402,
				0.011493580415844917,
				-0.07768364250659943,
				0.9962167739868164
			],
			"scale":[
				3.245896100997925,
				3.2458956241607666,
				3.2458956241607666
			],
			"translation":[
				0,
				-4.559556484222412,
				0
			]
		},
		{
			"mesh":4,
			"name":"Ball.001",
			"translation":[
				0.7761070132255554,
				-1.8649288415908813,
				0.6001376509666443
			]
		},
		{
			"mesh":5,
			"name":"Ball.004",
			"translation":[
				0.7761070132255554,
				-1.8649288415908813,
				0.6001376509666443
			]
		},
		{
			"mesh":6,
			"name":"Ball.005",
			"translation":[
				0.7761070132255554,
				-1.8649288415908813,
				0.6001376509666443
			]
		},
		{
			"mesh":7,
			"name":"Ball.006",
			"translation":[
				0.7761070132255554,
				-1.8649288415908813,
				0.6001376509666443
			]
		},
		{
			"mesh":8,
			"name":"Ball.007",
			"translation":[
				0.7761070132255554,
				-1.8649288415908813,
				0.6001376509666443
			]
		},
		{
			"mesh":9,
			"name":"Ball.008",
			"translation":[
				0.7761070132255554,
				-1.8649288415908813,
				0.6001376509666443
			]
		},
		{
			"mesh":10,
			"name":"Ball.009",
			"translation":[
				0.7761070132255554,
				-1.8649288415908813,
				0.6001376509666443
			]
		},
		{
			"name":"Vortex.001",
			"rotation":[
				0,
				0,
				-1,
				1.6292068494294654e-07
			],
			"scale":[
				-0.42069947719573975,
				-0.42069947719573975,
				-0.42069947719573975
			],
			"translation":[
				0,
				-2.3523054122924805,
				0
			]
		}
	],
	"animations":[
		{
			"channels":[
				{
					"sampler":0,
					"target":{
						"node":3,
						"path":"translation"
					}
				},
				{
					"sampler":1,
					"target":{
						"node":3,
						"path":"rotation"
					}
				},
				{
					"sampler":2,
					"target":{
						"node":3,
						"path":"scale"
					}
				}
			],
			"name":"BallAction.001",
			"samplers":[
				{
					"input":37,
					"interpolation":"LINEAR",
					"output":38
				},
				{
					"input":37,
					"interpolation":"LINEAR",
					"output":39
				},
				{
					"input":37,
					"interpolation":"LINEAR",
					"output":40
				}
			]
		},
		{
			"channels":[
				{
					"sampler":0,
					"target":{
						"node":4,
						"path":"translation"
					}
				},
				{
					"sampler":1,
					"target":{
						"node":4,
						"path":"rotation"
					}
				},
				{
					"sampler":2,
					"target":{
						"node":4,
						"path":"scale"
					}
				}
			],
			"name":"EmptyAction",
			"samplers":[
				{
					"input":41,
					"interpolation":"LINEAR",
					"output":42
				},
				{
					"input":43,
					"interpolation":"STEP",
					"output":44
				},
				{
					"input":41,
					"interpolation":"LINEAR",
					"output":45
				}
			]
		},
		{
			"channels":[
				{
					"sampler":0,
					"target":{
						"node":5,
						"path":"translation"
					}
				},
				{
					"sampler":1,
					"target":{
						"node":5,
						"path":"rotation"
					}
				},
				{
					"sampler":2,
					"target":{
						"node":5,
						"path":"scale"
					}
				}
			],
			"name":"Ball.001Action",
			"samplers":[
				{
					"input":37,
					"interpolation":"LINEAR",
					"output":46
				},
				{
					"input":37,
					"interpolation":"LINEAR",
					"output":47
				},
				{
					"input":37,
					"interpolation":"LINEAR",
					"output":48
				}
			]
		},
		{
			"channels":[
				{
					"sampler":0,
					"target":{
						"node":6,
						"path":"translation"
					}
				},
				{
					"sampler":1,
					"target":{
						"node":6,
						"path":"rotation"
					}
				},
				{
					"sampler":2,
					"target":{
						"node":6,
						"path":"scale"
					}
				}
			],
			"name":"Ball.001Action.002",
			"samplers":[
				{
					"input":37,
					"interpolation":"LINEAR",
					"output":49
				},
				{
					"input":37,
					"interpolation":"LINEAR",
					"output":50
				},
				{
					"input":37,
					"interpolation":"LINEAR",
					"output":51
				}
			]
		},
		{
			"channels":[
				{
					"sampler":0,
					"target":{
						"node":7,
						"path":"translation"
					}
				},
				{
					"sampler":1,
					"target":{
						"node":7,
						"path":"rotation"
					}
				},
				{
					"sampler":2,
					"target":{
						"node":7,
						"path":"scale"
					}
				}
			],
			"name":"Ball.001Action.003",
			"samplers":[
				{
					"input":37,
					"interpolation":"LINEAR",
					"output":52
				},
				{
					"input":37,
					"interpolation":"LINEAR",
					"output":53
				},
				{
					"input":37,
					"interpolation":"LINEAR",
					"output":54
				}
			]
		},
		{
			"channels":[
				{
					"sampler":0,
					"target":{
						"node":8,
						"path":"translation"
					}
				},
				{
					"sampler":1,
					"target":{
						"node":8,
						"path":"rotation"
					}
				},
				{
					"sampler":2,
					"target":{
						"node":8,
						"path":"scale"
					}
				}
			],
			"name":"Ball.001Action.004",
			"samplers":[
				{
					"input":37,
					"interpolation":"LINEAR",
					"output":55
				},
				{
					"input":37,
					"interpolation":"LINEAR",
					"output":56
				},
				{
					"input":37,
					"interpolation":"LINEAR",
					"output":57
				}
			]
		},
		{
			"channels":[
				{
					"sampler":0,
					"target":{
						"node":9,
						"path":"translation"
					}
				},
				{
					"sampler":1,
					"target":{
						"node":9,
						"path":"rotation"
					}
				},
				{
					"sampler":2,
					"target":{
						"node":9,
						"path":"scale"
					}
				}
			],
			"name":"Ball.001Action.005",
			"samplers":[
				{
					"input":37,
					"interpolation":"LINEAR",
					"output":58
				},
				{
					"input":37,
					"interpolation":"LINEAR",
					"output":59
				},
				{
					"input":37,
					"interpolation":"LINEAR",
					"output":60
				}
			]
		},
		{
			"channels":[
				{
					"sampler":0,
					"target":{
						"node":10,
						"path":"translation"
					}
				},
				{
					"sampler":1,
					"target":{
						"node":10,
						"path":"rotation"
					}
				},
				{
					"sampler":2,
					"target":{
						"node":10,
						"path":"scale"
					}
				}
			],
			"name":"Ball.001Action.006",
			"samplers":[
				{
					"input":37,
					"interpolation":"LINEAR",
					"output":61
				},
				{
					"input":37,
					"interpolation":"LINEAR",
					"output":62
				},
				{
					"input":37,
					"interpolation":"LINEAR",
					"output":63
				}
			]
		},
		{
			"channels":[
				{
					"sampler":0,
					"target":{
						"node":11,
						"path":"translation"
					}
				},
				{
					"sampler":1,
					"target":{
						"node":11,
						"path":"rotation"
					}
				},
				{
					"sampler":2,
					"target":{
						"node":11,
						"path":"scale"
					}
				}
			],
			"name":"Ball.001Action.007",
			"samplers":[
				{
					"input":37,
					"interpolation":"LINEAR",
					"output":64
				},
				{
					"input":37,
					"interpolation":"LINEAR",
					"output":65
				},
				{
					"input":37,
					"interpolation":"LINEAR",
					"output":66
				}
			]
		},
		{
			"channels":[
				{
					"sampler":0,
					"target":{
						"node":12,
						"path":"translation"
					}
				},
				{
					"sampler":1,
					"target":{
						"node":12,
						"path":"rotation"
					}
				},
				{
					"sampler":2,
					"target":{
						"node":12,
						"path":"scale"
					}
				}
			],
			"name":"Empty.001Action",
			"samplers":[
				{
					"input":37,
					"interpolation":"LINEAR",
					"output":67
				},
				{
					"input":37,
					"interpolation":"LINEAR",
					"output":68
				},
				{
					"input":37,
					"interpolation":"LINEAR",
					"output":69
				}
			]
		}
	],
	"meshes":[
		{
			"name":"Plane",
			"primitives":[
				{
					"attributes":{
						"POSITION":0,
						"NORMAL":1,
						"TEXCOORD_0":2
					},
					"indices":3
				}
			]
		},
		{
			"name":"Sphere.005",
			"primitives":[
				{
					"attributes":{
						"POSITION":4,
						"NORMAL":5,
						"TEXCOORD_0":6
					},
					"indices":7
				}
			]
		},
		{
			"name":"Icosphere.004",
			"primitives":[
				{
					"attributes":{
						"POSITION":8,
						"NORMAL":9,
						"TEXCOORD_0":10
					},
					"indices":11
				}
			]
		},
		{
			"name":"Sphere.002",
			"primitives":[
				{
					"attributes":{
						"POSITION":12,
						"NORMAL":13,
						"TEXCOORD_0":14
					},
					"indices":15
				}
			]
		},
		{
			"name":"Sphere.008",
			"primitives":[
				{
					"attributes":{
						"POSITION":16,
						"NORMAL":17,
						"TEXCOORD_0":18
					},
					"indices":15
				}
			]
		},
		{
			"name":"Sphere.001",
			"primitives":[
				{
					"attributes":{
						"POSITION":19,
						"NORMAL":20,
						"TEXCOORD_0":21
					},
					"indices":15
				}
			]
		},
		{
			"name":"Sphere.003",
			"primitives":[
				{
					"attributes":{
						"POSITION":22,
						"NORMAL":23,
						"TEXCOORD_0":24
					},
					"indices":15
				}
			]
		},
		{
			"name":"Sphere.007",
			"primitives":[
				{
					"attributes":{
						"POSITION":25,
						"NORMAL":26,
						"TEXCOORD_0":27
					},
					"indices":15
				}
			]
		},
		{
			"name":"Sphere.009",
			"primitives":[
				{
					"attributes":{
						"POSITION":28,
						"NORMAL":29,
						"TEXCOORD_0":30
					},
					"indices":15
				}
			]
		},
		{
			"name":"Sphere.010",
			"primitives":[
				{
					"attributes":{
						"POSITION":31,
						"NORMAL":32,
						"TEXCOORD_0":33
					},
					"indices":15
				}
			]
		},
		{
			"name":"Sphere.011",
			"primitives":[
				{
					"attributes":{
						"POSITION":34,
						"NORMAL":35,
						"TEXCOORD_0":36
					},
					"indices":15
				}
			]
		}
	],
	"accessors":[
		{
			"bufferView":0,
			"componentType":5126,
			"count":4,
			"max":[
				1,
				0,
				1
			],
			"min":[
				-1,
				0,
				-1
			],
			"type":"VEC3"
		},
		{
			"bufferView":1,
			"componentType":5126,
			"count":4,
			"type":"VEC3"
		},
		{
			"bufferView":2,
			"componentType":5126,
			"count":4,
			"type":"VEC2"
		},
		{
			"bufferView":3,
			"componentType":5123,
			"count":6,
			"type":"SCALAR"
		},
		{
			"bufferView":4,
			"componentType":5126,
			"count":1984,
			"max":[
				2.9999990463256836,
				3,
				2.999998092651367
			],
			"min":[
				-2.99999737739563,
				-3,
				-3
			],
			"type":"VEC3"
		},
		{
			"bufferView":5,
			"componentType":5126,
			"count":1984,
			"type":"VEC3"
		},
		{
			"bufferView":6,
			"componentType":5126,
			"count":1984,
			"type":"VEC2"
		},
		{
			"bufferView":7,
			"componentType":5123,
			"count":2880,
			"type":"SCALAR"
		},
		{
			"bufferView":8,
			"componentType":5126,
			"count":480,
			"max":[
				2.6724727153778076,
				2.809999942779541,
				2.809999942779541
			],
			"min":[
				-2.6724727153778076,
				-2.809999942779541,
				-2.809999942779541
			],
			"type":"VEC3"
		},
		{
			"bufferView":9,
			"componentType":5126,
			"count":480,
			"type":"VEC3"
		},
		{
			"bufferView":10,
			"componentType":5126,
			"count":480,
			"type":"VEC2"
		},
		{
			"bufferView":11,
			"componentType":5123,
			"count":480,
			"type":"SCALAR"
		},
		{
			"bufferView":12,
			"componentType":5126,
			"count":1984,
			"max":[
				0.19999991357326508,
				0.20000000298023224,
				0.1999998539686203
			],
			"min":[
				-0.19999980926513672,
				-0.20000000298023224,
				-0.20000000298023224
			],
			"type":"VEC3"
		},
		{
			"bufferView":13,
			"componentType":5126,
			"count":1984,
			"type":"VEC3"
		},
		{
			"bufferView":14,
			"componentType":5126,
			"count":1984,
			"type":"VEC2"
		},
		{
			"bufferView":15,
			"componentType":5123,
			"count":2880,
			"type":"SCALAR"
		},
		{
			"bufferView":16,
			"componentType":5126,
			"count":1984,
			"max":[
				0.19999991357326508,
				0.20000000298023224,
				0.1999998539686203
			],
			"min":[
				-0.19999980926513672,
				-0.20000000298023224,
				-0.20000000298023224
			],
			"type":"VEC3"
		},
		{
			"bufferView":17,
			"componentType":5126,
			"count":1984,
			"type":"VEC3"
		},
		{
			"bufferView":18,
			"componentType":5126,
			"count":1984,
			"type":"VEC2"
		},
		{
			"bufferView":19,
			"componentType":5126,
			"count":1984,
			"max":[
				0.19999991357326508,
				0.20000000298023224,
				0.1999998539686203
			],
			"min":[
				-0.19999980926513672,
				-0.20000000298023224,
				-0.20000000298023224
			],
			"type":"VEC3"
		},
		{
			"bufferView":20,
			"componentType":5126,
			"count":1984,
			"type":"VEC3"
		},
		{
			"bufferView":21,
			"componentType":5126,
			"count":1984,
			"type":"VEC2"
		},
		{
			"bufferView":22,
			"componentType":5126,
			"count":1984,
			"max":[
				0.19999991357326508,
				0.20000000298023224,
				0.1999998539686203
			],
			"min":[
				-0.19999980926513672,
				-0.20000000298023224,
				-0.20000000298023224
			],
			"type":"VEC3"
		},
		{
			"bufferView":23,
			"componentType":5126,
			"count":1984,
			"type":"VEC3"
		},
		{
			"bufferView":24,
			"componentType":5126,
			"count":1984,
			"type":"VEC2"
		},
		{
			"bufferView":25,
			"componentType":5126,
			"count":1984,
			"max":[
				0.19999991357326508,
				0.20000000298023224,
				0.1999998539686203
			],
			"min":[
				-0.19999980926513672,
				-0.20000000298023224,
				-0.20000000298023224
			],
			"type":"VEC3"
		},
		{
			"bufferView":26,
			"componentType":5126,
			"count":1984,
			"type":"VEC3"
		},
		{
			"bufferView":27,
			"componentType":5126,
			"count":1984,
			"type":"VEC2"
		},
		{
			"bufferView":28,
			"componentType":5126,
			"count":1984,
			"max":[
				0.19999991357326508,
				0.20000000298023224,
				0.1999998539686203
			],
			"min":[
				-0.19999980926513672,
				-0.20000000298023224,
				-0.20000000298023224
			],
			"type":"VEC3"
		},
		{
			"bufferView":29,
			"componentType":5126,
			"count":1984,
			"type":"VEC3"
		},
		{
			"bufferView":30,
			"componentType":5126,
			"count":1984,
			"type":"VEC2"
		},
		{
			"bufferView":31,
			"componentType":5126,
			"count":1984,
			"max":[
				0.19999991357326508,
				0.20000000298023224,
				0.1999998539686203
			],
			"min":[
				-0.19999980926513672,
				-0.20000000298023224,
				-0.20000000298023224
			],
			"type":"VEC3"
		},
		{
			"bufferView":32,
			"componentType":5126,
			"count":1984,
			"type":"VEC3"
		},
		{
			"bufferView":33,
			"componentType":5126,
			"count":1984,
			"type":"VEC2"
		},
		{
			"bufferView":34,
			"componentType":5126,
			"count":1984,
			"max":[
				0.19999991357326508,
				0.20000000298023224,
				0.1999998539686203
			],
			"min":[
				-0.19999980926513672,
				-0.20000000298023224,
				-0.20000000298023224
			],
			"type":"VEC3"
		},
		{
			"bufferView":35,
			"componentType":5126,
			"count":1984,
			"type":"VEC3"
		},
		{
			"bufferView":36,
			"componentType":5126,
			"count":1984,
			"type":"VEC2"
		},
		{
			"bufferView":37,
			"componentType":5126,
			"count":1,
			"max":[
				0
			],
			"min":[
				0
			],
			"type":"SCALAR"
		},
		{
			"bufferView":38,
			"componentType":5126,
			"count":1,
			"type":"VEC3"
		},
		{
			"bufferView":39,
			"componentType":5126,
			"count":1,
			"type":"VEC4"
		},
		{
			"bufferView":40,
			"componentType":5126,
			"count":1,
			"type":"VEC3"
		},
		{
			"bufferView":41,
			"componentType":5126,
			"count":91,
			"max":[
				4.583333333333333
			],
			"min":[
				0.8333333333333334
			],
			"type":"SCALAR"
		},
		{
			"bufferView":42,
			"componentType":5126,
			"count":91,
			"type":"VEC3"
		},
		{
			"bufferView":43,
			"componentType":5126,
			"count":2,
			"max":[
				4.583333333333333
			],
			"min":[
				0.8333333333333334
			],
			"type":"SCALAR"
		},
		{
			"bufferView":44,
			"componentType":5126,
			"count":2,
			"type":"VEC4"
		},
		{
			"bufferView":45,
			"componentType":5126,
			"count":91,
			"type":"VEC3"
		},
		{
			"bufferView":46,
			"componentType":5126,
			"count":1,
			"type":"VEC3"
		},
		{
			"bufferView":47,
			"componentType":5126,
			"count":1,
			"type":"VEC4"
		},
		{
			"bufferView":48,
			"componentType":5126,
			"count":1,
			"type":"VEC3"
		},
		{
			"bufferView":49,
			"componentType":5126,
			"count":1,
			"type":"VEC3"
		},
		{
			"bufferView":50,
			"componentType":5126,
			"count":1,
			"type":"VEC4"
		},
		{
			"bufferView":51,
			"componentType":5126,
			"count":1,
			"type":"VEC3"
		},
		{
			"bufferView":52,
			"componentType":5126,
			"count":1,
			"type":"VEC3"
		},
		{
			"bufferView":53,
			"componentType":5126,
			"count":1,
			"type":"VEC4"
		},
		{
			"bufferView":54,
			"componentType":5126,
			"count":1,
			"type":"VEC3"
		},
		{
			"bufferView":55,
			"componentType":5126,
			"count":1,
			"type":"VEC3"
		},
		{
			"bufferView":56,
			"componentType":5126,
			"count":1,
			"type":"VEC4"
		},
		{
			"bufferView":57,
			"componentType":5126,
			"count":1,
			"type":"VEC3"
		},
		{
			"bufferView":58,
			"componentType":5126,
			"count":1,
			"type":"VEC3"
		},
		{
			"bufferView":59,
			"componentType":5126,
			"count":1,
			"type":"VEC4"
		},
		{
			"bufferView":60,
			"componentType":5126,
			"count":1,
			"type":"VEC3"
		},
		{
			"bufferView":61,
			"componentType":5126,
			"count":1,
			"type":"VEC3"
		},
		{
			"bufferView":62,
			"componentType":5126,
			"count":1,
			"type":"VEC4"
		},
		{
			"bufferView":63,
			"componentType":5126,
			"count":1,
			"type":"VEC3"
		},
		{
			"bufferView":64,
			"componentType":5126,
			"count":1,
			"type":"VEC3"
		},
		{
			"bufferView":65,
			"componentType":5126,
			"count":1,
			"type":"VEC4"
		},
		{
			"bufferView":66,
			"componentType":5126,
			"count":1,
			"type":"VEC3"
		},
		{
			"bufferView":67,
			"componentType":5126,
			"count":1,
			"type":"VEC3"
		},
		{
			"bufferView":68,
			"componentType":5126,
			"count":1,
			"type":"VEC4"
		},
		{
			"bufferView":69,
			"componentType":5126,
			"count":1,
			"type":"VEC3"
		}
	],
	"bufferViews":[
		{
			"buffer":0,
			"byteLength":48,
			"byteOffset":0,
			"target":34962
		},
		{
			"buffer":0,
			"byteLength":48,
			"byteOffset":48,
			"target":34962
		},
		{
			"buffer":0,
			"byteLength":32,
			"byteOffset":96,
			"target":34962
		},
		{
			"buffer":0,
			"byteLength":12,
			"byteOffset":128,
			"target":34963
		},
		{
			"buffer":0,
			"byteLength":23808,
			"byteOffset":140,
			"target":34962
		},
		{
			"buffer":0,
			"byteLength":23808,
			"byteOffset":23948,
			"target":34962
		},
		{
			"buffer":0,
			"byteLength":15872,
			"byteOffset":47756,
			"target":34962
		},
		{
			"buffer":0,
			"byteLength":5760,
			"byteOffset":63628,
			"target":34963
		},
		{
			"buffer":0,
			"byteLength":5760,
			"byteOffset":69388,
			"target":34962
		},
		{
			"buffer":0,
			"byteLength":5760,
			"byteOffset":75148,
			"target":34962
		},
		{
			"buffer":0,
			"byteLength":3840,
			"byteOffset":80908,
			"target":34962
		},
		{
			"buffer":0,
			"byteLength":960,
			"byteOffset":84748,
			"target":34963
		},
		{
			"buffer":0,
			"byteLength":23808,
			"byteOffset":85708,
			"target":34962
		},
		{
			"buffer":0,
			"byteLength":23808,
			"byteOffset":109516,
			"target":34962
		},
		{
			"buffer":0,
			"byteLength":15872,
			"byteOffset":133324,
			"target":34962
		},
		{
			"buffer":0,
			"byteLength":5760,
			"byteOffset":149196,
			"target":34963
		},
		{
			"buffer":0,
			"byteLength":23808,
			"byteOffset":154956,
			"target":34962
		},
		{
			"buffer":0,
			"byteLength":23808,
			"byteOffset":178764,
			"target":34962
		},
		{
			"buffer":0,
			"byteLength":15872,
			"byteOffset":202572,
			"target":34962
		},
		{
			"buffer":0,
			"byteLength":23808,
			"byteOffset":218444,
			"target":34962
		},
		{
			"buffer":0,
			"byteLength":23808,
			"byteOffset":242252,
			"target":34962
		},
		{
			"buffer":0,
			"byteLength":15872,
			"byteOffset":266060,
			"target":34962
		},
		{
			"buffer":0,
			"byteLength":23808,
			"byteOffset":281932,
			"target":34962
		},
		{
			"buffer":0,
			"byteLength":23808,
			"byteOffset":305740,
			"target":34962
		},
		{
			"buffer":0,
			"byteLength":15872,
			"byteOffset":329548,
			"target":34962
		},
		{
			"buffer":0,
			"byteLength":23808,
			"byteOffset":345420,
			"target":34962
		},
		{
			"buffer":0,
			"byteLength":23808,
			"byteOffset":369228,
			"target":34962
		},
		{
			"buffer":0,
			"byteLength":15872,
			"byteOffset":393036,
			"target":34962
		},
		{
			"buffer":0,
			"byteLength":23808,
			"byteOffset":408908,
			"target":34962
		},
		{
			"buffer":0,
			"byteLength":23808,
			"byteOffset":432716,
			"target":34962
		},
		{
			"buffer":0,
			"byteLength":15872,
			"byteOffset":456524,
			"target":34962
		},
		{
			"buffer":0,
			"byteLength":23808,
			"byteOffset":472396,
			"target":34962
		},
		{
			"buffer":0,
			"byteLength":23808,
			"byteOffset":496204,
			"target":34962
		},
		{
			"buffer":0,
			"byteLength":15872,
			"byteOffset":520012,
			"target":34962
		},
		{
			"buffer":0,
			"byteLength":23808,
			"byteOffset":535884,
			"target":34962
		},
		{
			"buffer":0,
			"byteLength":23808,
			"byteOffset":559692,
			"target":34962
		},
		{
			"buffer":0,
			"byteLength":15872,
			"byteOffset":583500,
			"target":34962
		},
		{
			"buffer":0,
			"byteLength":4,
			"byteOffset":599372
		},
		{
			"buffer":0,
			"byteLength":12,
			"byteOffset":599376
		},
		{
			"buffer":0,
			"byteLength":16,
			"byteOffset":599388
		},
		{
			"buffer":0,
			"byteLength":12,
			"byteOffset":599404
		},
		{
			"buffer":0,
			"byteLength":364,
			"byteOffset":599416
		},
		{
			"buffer":0,
			"byteLength":1092,
			"byteOffset":599780
		},
		{
			"buffer":0,
			"byteLength":8,
			"byteOffset":600872
		},
		{
			"buffer":0,
			"byteLength":32,
			"byteOffset":600880
		},
		{
			"buffer":0,
			"byteLength":1092,
			"byteOffset":600912
		},
		{
			"buffer":0,
			"byteLength":12,
			"byteOffset":602004
		},
		{
			"buffer":0,
			"byteLength":16,
			"byteOffset":602016
		},
		{
			"buffer":0,
			"byteLength":12,
			"byteOffset":602032
		},
		{
			"buffer":0,
			"byteLength":12,
			"byteOffset":602044
		},
		{
			"buffer":0,
			"byteLength":16,
			"byteOffset":602056
		},
		{
			"buffer":0,
			"byteLength":12,
			"byteOffset":602072
		},
		{
			"buffer":0,
			"byteLength":12,
			"byteOffset":602084
		},
		{
			"buffer":0,
			"byteLength":16,
			"byteOffset":602096
		},
		{
			"buffer":0,
			"byteLength":12,
			"byteOffset":602112
		},
		{
			"buffer":0,
			"byteLength":12,
			"byteOffset":602124
		},
		{
			"buffer":0,
			"byteLength":16,
			"byteOffset":602136
		},
		{
			"buffer":0,
			"byteLength":12,
			"byteOffset":602152
		},
		{
			"buffer":0,
			"byteLength":12,
			"byteOffset":602164
		},
		{
			"buffer":0,
			"byteLength":16,
			"byteOffset":602176
		},
		{
			"buffer":0,
			"byteLength":12,
			"byteOffset":602192
		},
		{
			"buffer":0,
			"byteLength":12,
			"byteOffset":602204
		},
		{
			"buffer":0,
			"byteLength":16,
			"byteOffset":602216
		},
		{
			"buffer":0,
			"byteLength":12,
			"byteOffset":602232
		},
		{
			"buffer":0,
			"byteLength":12,
			"byteOffset":602244
		},
		{
			"buffer":0,
			"byteLength":16,
			"byteOffset":602256
		},
		{
			"buffer":0,
			"byteLength":12,
			"byteOffset":602272
		},
		{
			"buffer":0,
			"byteLength":12,
			"byteOffset":602284
		},
		{
			"buffer":0,
			"byteLength":16,
			"byteOffset":602296
		},
		{
			"buffer":0,
			"byteLength":12,
			"byteOffset":602312
		}
	],
	"buffers":[
		{
			"byteLength":602324,
			"uri":"data:application/octet-stream;base64,"
		}
	]
}
