{
	"asset":{
		"generator":"Khronos glTF Blender I/O v3.6.27",
		"version":"2.0"
	},
	"scene":0,
	"scenes":[
		{
			"name":"Scene",
			"nodes":[
				0,
				1,
				2,
				3,
				4,
				5,
				6,
				7,
				8,
				9,
				10
			]
		}
	],
	"nodes":[
		{
			"mesh":0,
			"name":"Dom",
			"scale":[
				2.52510142326355,
				2.52510142326355,
				2.52510142326355
			]
		},
		{
			"mesh":1,
			"name":"Terrrein",
			"scale":[
				2.37648868560791,
				2.37648868560791,
				2.37648868560791
			]
		},
		{
			"mesh":2,
			"name":"Ball-Selected_0.2",
			"scale":[
				1.5000001192092896,
				1.499999761581421,
				1.5000001192092896
			],
			"translation":[
				0,
				-6.221540927886963,
				0
			]
		},
		{
			"mesh":3,
			"name":"particle.040",
			"rotation":[
				0.3833693265914917,
				0.712417721748352,
				0.2785325050354004,
				0.5175988674163818
			],
			"translation":[
				-0.01867474429309368,
				-2.0297884941101074,
				-0.06091120466589928
			]
		},
		{
			"mesh":3,
			"name":"particle.041",
			"rotation":[
				-0.27117928862571716,
				-0.6330617070198059,
				0.2854922115802765,
				0.6664749979972839
			],
			"scale":[
				0.0010000001639127731,
				0.0010000000474974513,
				0.0010000001639127731
			],
			"translation":[
				-0.005479584448039532,
				-2.0266480445861816,
				0.05885782465338707
			]
		},
		{
			"mesh":3,
			"name":"particle.042",
			"rotation":[
				0.2381686121225357,
				-0.5373684167861938,
				-0.32781270146369934,
				0.7396280765533447
			],
			"scale":[
				0.0010000001639127731,
				0.0010000001639127731,
				0.0010000001639127731
			],
			"translation":[
				0.01549553032964468,
				-2.1272339820861816,
				0.062248993664979935
			]
		},
		{
			"mesh":3,
			"name":"particle.043",
			"rotation":[
				0,
				0,
				-0.5589320063591003,
				0.8292135000228882
			],
			"scale":[
				0.0010000001639127731,
				0.0010000001639127731,
				0.0010000000474974513
			],
			"translation":[
				0.006847791839390993,
				-2.1591527462005615,
				0.0010622091358527541
			]
		},
		{
			"mesh":3,
			"name":"particle.044",
			"rotation":[
				-0.0302576906979084,
				0.9505754709243774,
				-0.00983128696680069,
				0.30885934829711914
			],
			"scale":[
				0.0010000000474974513,
				0.0010000000474974513,
				0.0010000000474974513
			],
			"translation":[
				-0.05967989191412926,
				-2.0830132961273193,
				-0.050622839480638504
			]
		},
		{
			"mesh":3,
			"name":"particle.045",
			"rotation":[
				-0.5315749645233154,
				0.7886303663253784,
				-0.17271782457828522,
				0.256239652633667
			],
			"scale":[
				0.0009999999310821295,
				0.0010000000474974513,
				0.0009999999310821295
			],
			"translation":[
				-0.011194178834557533,
				-2.15140962600708,
				-0.03375798463821411
			]
		},
		{
			"mesh":3,
			"name":"particle.046",
			"rotation":[
				-0.4799360930919647,
				-0.6512852907180786,
				0.34869199991226196,
				0.4731837511062622
			],
			"scale":[
				0.0010000000474974513,
				0.0010000001639127731,
				0.0010000000474974513
			],
			"translation":[
				0.006702824961394072,
				-2.007127046585083,
				0.03643590956926346
			]
		},
		{
			"mesh":3,
			"name":"particle.047",
			"rotation":[
				-0.04741737246513367,
				-0.30535608530044556,
				0.14593631029129028,
				0.9397935271263123
			],
			"scale":[
				0.0010000000474974513,
				0.0010000000474974513,
				0.0010000000474974513
			],
			"translation":[
				0.0545722059905529,
				-2.0640149116516113,
				0.054333772510290146
			]
		}
	],
	"animations":[
		{
			"channels":[
				{
					"sampler":0,
					"target":{
						"node":2,
						"path":"translation"
					}
				},
				{
					"sampler":1,
					"target":{
						"node":2,
						"path":"rotation"
					}
				}
			],
			"name":"Ball-Selected_0.2Action",
			"samplers":[
				{
					"input":16,
					"interpolation":"LINEAR",
					"output":17
				},
				{
					"input":16,
					"interpolation":"LINEAR",
					"output":18
				}
			]
		},
		{
			"channels":[
				{
					"sampler":0,
					"target":{
						"node":3,
						"path":"translation"
					}
				},
				{
					"sampler":1,
					"target":{
						"node":3,
						"path":"rotation"
					}
				},
				{
					"sampler":2,
					"target":{
						"node":3,
						"path":"scale"
					}
				}
			],
			"name":"particle.040Action.006",
			"samplers":[
				{
					"input":16,
					"interpolation":"LINEAR",
					"output":19
				},
				{
					"input":16,
					"interpolation":"LINEAR",
					"output":20
				},
				{
					"input":21,
					"interpolation":"STEP",
					"output":22
				}
			]
		},
		{
			"channels":[
				{
					"sampler":0,
					"target":{
						"node":4,
						"path":"translation"
					}
				},
				{
					"sampler":1,
					"target":{
						"node":4,
						"path":"rotation"
					}
				},
				{
					"sampler":2,
					"target":{
						"node":4,
						"path":"scale"
					}
				}
			],
			"name":"particle.041Action.005",
			"samplers":[
				{
					"input":16,
					"interpolation":"LINEAR",
					"output":23
				},
				{
					"input":16,
					"interpolation":"LINEAR",
					"output":24
				},
				{
					"input":16,
					"interpolation":"LINEAR",
					"output":25
				}
			]
		},
		{
			"channels":[
				{
					"sampler":0,
					"target":{
						"node":5,
						"path":"translation"
					}
				},
				{
					"sampler":1,
					"target":{
						"node":5,
						"path":"rotation"
					}
				},
				{
					"sampler":2,
					"target":{
						"node":5,
						"path":"scale"
					}
				}
			],
			"name":"particle.042Action.005",
			"samplers":[
				{
					"input":16,
					"interpolation":"LINEAR",
					"output":26
				},
				{
					"input":16,
					"interpolation":"LINEAR",
					"output":27
				},
				{
					"input":16,
					"interpolation":"LINEAR",
					"output":28
				}
			]
		},
		{
			"channels":[
				{
					"sampler":0,
					"target":{
						"node":6,
						"path":"translation"
					}
				},
				{
					"sampler":1,
					"target":{
						"node":6,
						"path":"rotation"
					}
				},
				{
					"sampler":2,
					"target":{
						"node":6,
						"path":"scale"
					}
				}
			],
			"name":"particle.043Action.005",
			"samplers":[
				{
					"input":16,
					"interpolation":"LINEAR",
					"output":29
				},
				{
					"input":16,
					"interpolation":"LINEAR",
					"output":30
				},
				{
					"input":16,
					"interpolation":"LINEAR",
					"output":31
				}
			]
		},
		{
			"channels":[
				{
					"sampler":0,
					"target":{
						"node":7,
						"path":"translation"
					}
				},
				{
					"sampler":1,
					"target":{
						"node":7,
						"path":"rotation"
					}
				},
				{
					"sampler":2,
					"target":{
						"node":7,
						"path":"scale"
					}
				}
			],
			"name":"particle.044Action.005",
			"samplers":[
				{
					"input":16,
					"interpolation":"LINEAR",
					"output":32
				},
				{
					"input":16,
					"interpolation":"LINEAR",
					"output":33
				},
				{
					"input":16,
					"interpolation":"LINEAR",
					"output":34
				}
			]
		},
		{
			"channels":[
				{
					"sampler":0,
					"target":{
						"node":8,
						"path":"translation"
					}
				},
				{
					"sampler":1,
					"target":{
						"node":8,
						"path":"rotation"
					}
				},
				{
					"sampler":2,
					"target":{
						"node":8,
						"path":"scale"
					}
				}
			],
			"name":"particle.045Action.005",
			"samplers":[
				{
					"input":16,
					"interpolation":"LINEAR",
					"output":35
				},
				{
					"input":16,
					"interpolation":"LINEAR",
					"output":36
				},
				{
					"input":16,
					"interpolation":"LINEAR",
					"output":37
				}
			]
		},
		{
			"channels":[
				{
					"sampler":0,
					"target":{
						"node":9,
						"path":"translation"
					}
				},
				{
					"sampler":1,
					"target":{
						"node":9,
						"path":"rotation"
					}
				},
				{
					"sampler":2,
					"target":{
						"node":9,
						"path":"scale"
					}
				}
			],
			"name":"particle.046Action.006",
			"samplers":[
				{
					"input":16,
					"interpolation":"LINEAR",
					"output":38
				},
				{
					"input":16,
					"interpolation":"LINEAR",
					"output":39
				},
				{
					"input":16,
					"interpolation":"LINEAR",
					"output":40
				}
			]
		},
		{
			"channels":[
				{
					"sampler":0,
					"target":{
						"node":10,
						"path":"translation"
					}
				},
				{
					"sampler":1,
					"target":{
						"node":10,
						"path":"rotation"
					}
				},
				{
					"sampler":2,
					"target":{
						"node":10,
						"path":"scale"
					}
				}
			],
			"name":"particle.047Action.006",
			"samplers":[
				{
					"input":16,
					"interpolation":"LINEAR",
					"output":41
				},
				{
					"input":16,
					"interpolation":"LINEAR",
					"output":42
				},
				{
					"input":16,
					"interpolation":"LINEAR",
					"output":43
				}
			]
		}
	],
	"materials":[
		{
			"doubleSided":true,
			"name":"glass",
			"pbrMetallicRoughness":{}
		}
	],
	"meshes":[
		{
			"name":"Sphere",
			"primitives":[
				{
					"attributes":{
						"POSITION":0,
						"NORMAL":1,
						"TEXCOORD_0":2
					},
					"indices":3,
					"material":0
				}
			]
		},
		{
			"name":"Icosphere",
			"primitives":[
				{
					"attributes":{
						"POSITION":4,
						"NORMAL":5,
						"TEXCOORD_0":6
					},
					"indices":7
				}
			]
		},
		{
			"name":"Sphere.009",
			"primitives":[
				{
					"attributes":{
						"POSITION":8,
						"NORMAL":9,
						"TEXCOORD_0":10
					},
					"indices":11
				}
			]
		},
		{
			"name":"Sphere.001",
			"primitives":[
				{
					"attributes":{
						"POSITION":12,
						"NORMAL":13,
						"TEXCOORD_0":14
					},
					"indices":15
				}
			]
		}
	],
	"accessors":[
		{
			"bufferView":0,
			"componentType":5126,
			"count":559,
			"max":[
				0.9999997019767761,
				1,
				0.9999993443489075
			],
			"min":[
				-0.9999990463256836,
				-1,
				-1
			],
			"type":"VEC3"
		},
		{
			"bufferView":1,
			"componentType":5126,
			"count":559,
			"type":"VEC3"
		},
		{
			"bufferView":2,
			"componentType":5126,
			"count":559,
			"type":"VEC2"
		},
		{
			"bufferView":3,
			"componentType":5123,
			"count":2880,
			"type":"SCALAR"
		},
		{
			"bufferView":4,
			"componentType":5126,
			"count":240,
			"max":[
				0.9510578513145447,
				1,
				0.9999999403953552
			],
			"min":[
				-0.9510578513145447,
				-1,
				-0.9999999403953552
			],
			"type":"VEC3"
		},
		{
			"bufferView":5,
			"componentType":5126,
			"count":240,
			"type":"VEC3"
		},
		{
			"bufferView":6,
			"componentType":5126,
			"count":240,
			"type":"VEC2"
		},
		{
			"bufferView":7,
			"componentType":5123,
			"count":240,
			"type":"SCALAR"
		},
		{
			"bufferView":8,
			"componentType":5126,
			"count":992,
			"max":[
				0.20000000298023224,
				2.999701976776123,
				0.19999998807907104
			],
			"min":[
				-0.19999998807907104,
				2.5997018814086914,
				-0.19999998807907104
			],
			"type":"VEC3"
		},
		{
			"bufferView":9,
			"componentType":5126,
			"count":992,
			"type":"VEC3"
		},
		{
			"bufferView":10,
			"componentType":5126,
			"count":992,
			"type":"VEC2"
		},
		{
			"bufferView":11,
			"componentType":5123,
			"count":1440,
			"type":"SCALAR"
		},
		{
			"bufferView":12,
			"componentType":5126,
			"count":1984,
			"max":[
				0.2999999523162842,
				0.30000001192092896,
				0.299999862909317
			],
			"min":[
				-0.29999974370002747,
				-0.30000001192092896,
				-0.30000001192092896
			],
			"type":"VEC3"
		},
		{
			"bufferView":13,
			"componentType":5126,
			"count":1984,
			"type":"VEC3"
		},
		{
			"bufferView":14,
			"componentType":5126,
			"count":1984,
			"type":"VEC2"
		},
		{
			"bufferView":15,
			"componentType":5123,
			"count":2880,
			"type":"SCALAR"
		},
		{
			"bufferView":16,
			"componentType":5126,
			"count":40,
			"max":[
				1.6666666666666667
			],
			"min":[
				0.041666666666666664
			],
			"type":"SCALAR"
		},
		{
			"bufferView":17,
			"componentType":5126,
			"count":40,
			"type":"VEC3"
		},
		{
			"bufferView":18,
			"componentType":5126,
			"count":40,
			"type":"VEC4"
		},
		{
			"bufferView":19,
			"componentType":5126,
			"count":40,
			"type":"VEC3"
		},
		{
			"bufferView":20,
			"componentType":5126,
			"count":40,
			"type":"VEC4"
		},
		{
			"bufferView":21,
			"componentType":5126,
			"count":2,
			"max":[
				1.6666666666666667
			],
			"min":[
				0.041666666666666664
			],
			"type":"SCALAR"
		},
		{
			"bufferView":22,
			"componentType":5126,
			"count":2,
			"type":"VEC3"
		},
		{
			"bufferView":23,
			"componentType":5126,
			"count":40,
			"type":"VEC3"
		},
		{
			"bufferView":24,
			"componentType":5126,
			"count":40,
			"type":"VEC4"
		},
		{
			"bufferView":25,
			"componentType":5126,
			"count":40,
			"type":"VEC3"
		},
		{
			"bufferView":26,
			"componentType":5126,
			"count":40,
			"type":"VEC3"
		},
		{
			"bufferView":27,
			"componentType":5126,
			"count":40,
			"type":"VEC4"
		},
		{
			"bufferView":28,
			"componentType":5126,
			"count":40,
			"type":"VEC3"
		},
		{
			"bufferView":29,
			"componentType":5126,
			"count":40,
			"type":"VEC3"
		},
		{
			"bufferView":30,
			"componentType":5126,
			"count":40,
			"type":"VEC4"
		},
		{
			"bufferView":31,
			"componentType":5126,
			"count":40,
			"type":"VEC3"
		},
		{
			"bufferView":32,
			"componentType":5126,
			"count":40,
			"type":"VEC3"
		},
		{
			"bufferView":33,
			"componentType":5126,
			"count":40,
			"type":"VEC4"
		},
		{
			"bufferView":34,
			"componentType":5126,
			"count":40,
			"type":"VEC3"
		},
		{
			"bufferView":35,
			"componentType":5126,
			"count":40,
			"type":"VEC3"
		},
		{
			"bufferView":36,
			"componentType":5126,
			"count":40,
			"type":"VEC4"
		},
		{
			"bufferView":37,
			"componentType":5126,
			"count":40,
			"type":"VEC3"
		},
		{
			"bufferView":38,
			"componentType":5126,
			"count":40,
			"type":"VEC3"
		},
		{
			"bufferView":39,
			"componentType":5126,
			"count":40,
			"type":"VEC4"
		},
		{
			"bufferView":40,
			"componentType":5126,
			"count":40,
			"type":"VEC3"
		},
		{
			"bufferView":41,
			"componentType":5126,
			"count":40,
			"type":"VEC3"
		},
		{
			"bufferView":42,
			"componentType":5126,
			"count":40,
			"type":"VEC4"
		},
		{
			"bufferView":43,
			"componentType":5126,
			"count":40,
			"type":"VEC3"
		}
	],
	"bufferViews":[
		{
			"buffer":0,
			"byteLength":6708,
			"byteOffset":0,
			"target":34962
		},
		{
			"buffer":0,
			"byteLength":6708,
			"byteOffset":6708,
			"target":34962
		},
		{
			"buffer":0,
			"byteLength":4472,
			"byteOffset":13416,
			"target":34962
		},
		{
			"buffer":0,
			"byteLength":5760,
			"byteOffset":17888,
			"target":34963
		},
		{
			"buffer":0,
			"byteLength":2880,
			"byteOffset":23648,
			"target":34962
		},
		{
			"buffer":0,
			"byteLength":2880,
			"byteOffset":26528,
			"target":34962
		},
		{
			"buffer":0,
			"byteLength":1920,
			"byteOffset":29408,
			"target":34962
		},
		{
			"buffer":0,
			"byteLength":480,
			"byteOffset":31328,
			"target":34963
		},
		{
			"buffer":0,
			"byteLength":11904,
			"byteOffset":31808,
			"target":34962
		},
		{
			"buffer":0,
			"byteLength":11904,
			"byteOffset":43712,
			"target":34962
		},
		{
			"buffer":0,
			"byteLength":7936,
			"byteOffset":55616,
			"target":34962
		},
		{
			"buffer":0,
			"byteLength":2880,
			"byteOffset":63552,
			"target":34963
		},
		{
			"buffer":0,
			"byteLength":23808,
			"byteOffset":66432,
			"target":34962
		},
		{
			"buffer":0,
			"byteLength":23808,
			"byteOffset":90240,
			"target":34962
		},
		{
			"buffer":0,
			"byteLength":15872,
			"byteOffset":114048,
			"target":34962
		},
		{
			"buffer":0,
			"byteLength":5760,
			"byteOffset":129920,
			"target":34963
		},
		{
			"buffer":0,
			"byteLength":160,
			"byteOffset":135680
		},
		{
			"buffer":0,
			"byteLength":480,
			"byteOffset":135840
		},
		{
			"buffer":0,
			"byteLength":640,
			"byteOffset":136320
		},
		{
			"buffer":0,
			"byteLength":480,
			"byteOffset":136960
		},
		{
			"buffer":0,
			"byteLength":640,
			"byteOffset":137440
		},
		{
			"buffer":0,
			"byteLength":8,
			"byteOffset":138080
		},
		{
			"buffer":0,
			"byteLength":24,
			"byteOffset":138088
		},
		{
			"buffer":0,
			"byteLength":480,
			"byteOffset":138112
		},
		{
			"buffer":0,
			"byteLength":640,
			"byteOffset":138592
		},
		{
			"buffer":0,
			"byteLength":480,
			"byteOffset":139232
		},
		{
			"buffer":0,
			"byteLength":480,
			"byteOffset":139712
		},
		{
			"buffer":0,
			"byteLength":640,
			"byteOffset":140192
		},
		{
			"buffer":0,
			"byteLength":480,
			"byteOffset":140832
		},
		{
			"buffer":0,
			"byteLength":480,
			"byteOffset":141312
		},
		{
			"buffer":0,
			"byteLength":640,
			"byteOffset":141792
		},
		{
			"buffer":0,
			"byteLength":480,
			"byteOffset":142432
		},
		{
			"buffer":0,
			"byteLength":480,
			"byteOffset":142912
		},
		{
			"buffer":0,
			"byteLength":640,
			"byteOffset":143392
		},
		{
			"buffer":0,
			"byteLength":480,
			"byteOffset":144032
		},
		{
			"buffer":0,
			"byteLength":480,
			"byteOffset":144512
		},
		{
			"buffer":0,
			"byteLength":640,
			"byteOffset":144992
		},
		{
			"buffer":0,
			"byteLength":480,
			"byteOffset":145632
		},
		{
			"buffer":0,
			"byteLength":480,
			"byteOffset":146112
		},
		{
			"buffer":0,
			"byteLength":640,
			"byteOffset":146592
		},
		{
			"buffer":0,
			"byteLength":480,
			"byteOffset":147232
		},
		{
			"buffer":0,
			"byteLength":480,
			"byteOffset":147712
		},
		{
			"buffer":0,
			"byteLength":640,
			"byteOffset":148192
		},
		{
			"buffer":0,
			"byteLength":480,
			"byteOffset":148832
		}
	],
	"buffers":[
		{
			"byteLength":149312,
			"uri":"data:application/octet-stream;base64,"
		}
	]
}
