{
	"asset":{
		"generator":"Khronos glTF Blender I/O v3.6.27",
		"version":"2.0"
	},
	"scene":0,
	"scenes":[
		{
			"name":"Scene",
			"nodes":[
				0,
				1,
				2,
				3,
				4,
				5,
				6,
				7,
				8,
				9,
				10
			]
		}
	],
	"nodes":[
		{
			"mesh":0,
			"name":"Dom",
			"scale":[
				2.52510142326355,
				2.52510142326355,
				2.52510142326355
			]
		},
		{
			"mesh":1,
			"name":"Terrrein",
			"scale":[
				2.37648868560791,
				2.37648868560791,
				2.37648868560791
			]
		},
		{
			"mesh":2,
			"name":"Ball-Selected_0.2",
			"translation":[
				0,
				-4.934726238250732,
				0
			]
		},
		{
			"mesh":3,
			"name":"particle.040",
			"rotation":[
				0.3833692967891693,
				0.7124177813529968,
				0.278532475233078,
				0.5175988674163818
			],
			"translation":[
				-0.028341282159090042,
				-2.0045108795166016,
				-0.09244044125080109
			]
		},
		{
			"mesh":3,
			"name":"particle.041",
			"rotation":[
				-0.27117928862571716,
				-0.6330617070198059,
				0.2854922115802765,
				0.6664749979972839
			],
			"scale":[
				0.0010000001639127731,
				0.0010000000474974513,
				0.0010000001639127731
			],
			"translation":[
				-0.008315961807966232,
				-1.9997451305389404,
				0.08932417631149292
			]
		},
		{
			"mesh":3,
			"name":"particle.042",
			"rotation":[
				0.23816850781440735,
				-0.5373682975769043,
				-0.32781273126602173,
				0.7396281957626343
			],
			"scale":[
				0.0010000000474974513,
				0.0010000000474974513,
				0.0010000000474974513
			],
			"translation":[
				0.023516424000263214,
				-2.1523966789245605,
				0.09447070211172104
			]
		},
		{
			"mesh":3,
			"name":"particle.043",
			"rotation":[
				0,
				0,
				-0.5589320063591003,
				0.8292135000228882
			],
			"scale":[
				0.0010000001639127731,
				0.0010000001639127731,
				0.0010000000474974513
			],
			"translation":[
				0.010392389260232449,
				-2.2008376121520996,
				0.0016120363725349307
			]
		},
		{
			"mesh":3,
			"name":"particle.044",
			"rotation":[
				-0.0302576906979084,
				0.9505754709243774,
				-0.00983128696680069,
				0.30885934829711914
			],
			"scale":[
				0.0010000000474974513,
				0.0010000000474974513,
				0.0010000000474974513
			],
			"translation":[
				-0.09057176858186722,
				-2.0852866172790527,
				-0.0768265500664711
			]
		},
		{
			"mesh":3,
			"name":"particle.045",
			"rotation":[
				-0.531575083732605,
				0.7886303663253784,
				-0.17271766066551208,
				0.25623950362205505
			],
			"scale":[
				0.0009999999310821295,
				0.0010000000474974513,
				0.0009999999310821295
			],
			"translation":[
				-0.01698857918381691,
				-2.189086675643921,
				-0.051232002675533295
			]
		},
		{
			"mesh":3,
			"name":"particle.046",
			"rotation":[
				-0.4799360930919647,
				-0.6512852907180786,
				0.34869199991226196,
				0.4731837511062622
			],
			"scale":[
				0.0010000000474974513,
				0.0010000001639127731,
				0.0010000000474974513
			],
			"translation":[
				0.010172382928431034,
				-1.9701193571090698,
				0.055296093225479126
			]
		},
		{
			"mesh":3,
			"name":"particle.047",
			"rotation":[
				-0.047417398542165756,
				-0.3053561747074127,
				0.14593632519245148,
				0.939793586730957
			],
			"scale":[
				0.0010000000474974513,
				0.0010000000474974513,
				0.0010000000474974513
			],
			"translation":[
				0.08282020688056946,
				-2.0564541816711426,
				0.08245836198329926
			]
		}
	],
	"animations":[
		{
			"channels":[
				{
					"sampler":0,
					"target":{
						"node":2,
						"path":"translation"
					}
				},
				{
					"sampler":1,
					"target":{
						"node":2,
						"path":"rotation"
					}
				}
			],
			"name":"ball-up.001",
			"samplers":[
				{
					"input":16,
					"interpolation":"LINEAR",
					"output":17
				},
				{
					"input":16,
					"interpolation":"LINEAR",
					"output":18
				}
			]
		},
		{
			"channels":[
				{
					"sampler":0,
					"target":{
						"node":3,
						"path":"translation"
					}
				},
				{
					"sampler":1,
					"target":{
						"node":3,
						"path":"rotation"
					}
				},
				{
					"sampler":2,
					"target":{
						"node":3,
						"path":"scale"
					}
				}
			],
			"name":"particle.040Action.005",
			"samplers":[
				{
					"input":16,
					"interpolation":"LINEAR",
					"output":19
				},
				{
					"input":16,
					"interpolation":"LINEAR",
					"output":20
				},
				{
					"input":21,
					"interpolation":"STEP",
					"output":22
				}
			]
		},
		{
			"channels":[
				{
					"sampler":0,
					"target":{
						"node":4,
						"path":"translation"
					}
				},
				{
					"sampler":1,
					"target":{
						"node":4,
						"path":"rotation"
					}
				},
				{
					"sampler":2,
					"target":{
						"node":4,
						"path":"scale"
					}
				}
			],
			"name":"particle.041Action.004",
			"samplers":[
				{
					"input":16,
					"interpolation":"LINEAR",
					"output":23
				},
				{
					"input":16,
					"interpolation":"LINEAR",
					"output":24
				},
				{
					"input":16,
					"interpolation":"LINEAR",
					"output":25
				}
			]
		},
		{
			"channels":[
				{
					"sampler":0,
					"target":{
						"node":5,
						"path":"translation"
					}
				},
				{
					"sampler":1,
					"target":{
						"node":5,
						"path":"rotation"
					}
				},
				{
					"sampler":2,
					"target":{
						"node":5,
						"path":"scale"
					}
				}
			],
			"name":"particle.042Action.004",
			"samplers":[
				{
					"input":16,
					"interpolation":"LINEAR",
					"output":26
				},
				{
					"input":16,
					"interpolation":"LINEAR",
					"output":27
				},
				{
					"input":16,
					"interpolation":"LINEAR",
					"output":28
				}
			]
		},
		{
			"channels":[
				{
					"sampler":0,
					"target":{
						"node":6,
						"path":"translation"
					}
				},
				{
					"sampler":1,
					"target":{
						"node":6,
						"path":"rotation"
					}
				},
				{
					"sampler":2,
					"target":{
						"node":6,
						"path":"scale"
					}
				}
			],
			"name":"particle.043Action.004",
			"samplers":[
				{
					"input":16,
					"interpolation":"LINEAR",
					"output":29
				},
				{
					"input":16,
					"interpolation":"LINEAR",
					"output":30
				},
				{
					"input":16,
					"interpolation":"LINEAR",
					"output":31
				}
			]
		},
		{
			"channels":[
				{
					"sampler":0,
					"target":{
						"node":7,
						"path":"translation"
					}
				},
				{
					"sampler":1,
					"target":{
						"node":7,
						"path":"rotation"
					}
				},
				{
					"sampler":2,
					"target":{
						"node":7,
						"path":"scale"
					}
				}
			],
			"name":"particle.044Action.004",
			"samplers":[
				{
					"input":16,
					"interpolation":"LINEAR",
					"output":32
				},
				{
					"input":16,
					"interpolation":"LINEAR",
					"output":33
				},
				{
					"input":16,
					"interpolation":"LINEAR",
					"output":34
				}
			]
		},
		{
			"channels":[
				{
					"sampler":0,
					"target":{
						"node":8,
						"path":"translation"
					}
				},
				{
					"sampler":1,
					"target":{
						"node":8,
						"path":"rotation"
					}
				},
				{
					"sampler":2,
					"target":{
						"node":8,
						"path":"scale"
					}
				}
			],
			"name":"particle.045Action.004",
			"samplers":[
				{
					"input":16,
					"interpolation":"LINEAR",
					"output":35
				},
				{
					"input":16,
					"interpolation":"LINEAR",
					"output":36
				},
				{
					"input":16,
					"interpolation":"LINEAR",
					"output":37
				}
			]
		},
		{
			"channels":[
				{
					"sampler":0,
					"target":{
						"node":9,
						"path":"translation"
					}
				},
				{
					"sampler":1,
					"target":{
						"node":9,
						"path":"rotation"
					}
				},
				{
					"sampler":2,
					"target":{
						"node":9,
						"path":"scale"
					}
				}
			],
			"name":"particle.046Action.005",
			"samplers":[
				{
					"input":16,
					"interpolation":"LINEAR",
					"output":38
				},
				{
					"input":16,
					"interpolation":"LINEAR",
					"output":39
				},
				{
					"input":16,
					"interpolation":"LINEAR",
					"output":40
				}
			]
		},
		{
			"channels":[
				{
					"sampler":0,
					"target":{
						"node":10,
						"path":"translation"
					}
				},
				{
					"sampler":1,
					"target":{
						"node":10,
						"path":"rotation"
					}
				},
				{
					"sampler":2,
					"target":{
						"node":10,
						"path":"scale"
					}
				}
			],
			"name":"particle.047Action.005",
			"samplers":[
				{
					"input":16,
					"interpolation":"LINEAR",
					"output":41
				},
				{
					"input":16,
					"interpolation":"LINEAR",
					"output":42
				},
				{
					"input":16,
					"interpolation":"LINEAR",
					"output":43
				}
			]
		}
	],
	"materials":[
		{
			"doubleSided":true,
			"name":"glass",
			"pbrMetallicRoughness":{}
		}
	],
	"meshes":[
		{
			"name":"Sphere",
			"primitives":[
				{
					"attributes":{
						"POSITION":0,
						"NORMAL":1,
						"TEXCOORD_0":2
					},
					"indices":3,
					"material":0
				}
			]
		},
		{
			"name":"Icosphere",
			"primitives":[
				{
					"attributes":{
						"POSITION":4,
						"NORMAL":5,
						"TEXCOORD_0":6
					},
					"indices":7
				}
			]
		},
		{
			"name":"Sphere.009",
			"primitives":[
				{
					"attributes":{
						"POSITION":8,
						"NORMAL":9,
						"TEXCOORD_0":10
					},
					"indices":11
				}
			]
		},
		{
			"name":"Sphere.013",
			"primitives":[
				{
					"attributes":{
						"POSITION":12,
						"NORMAL":13,
						"TEXCOORD_0":14
					},
					"indices":15
				}
			]
		}
	],
	"accessors":[
		{
			"bufferView":0,
			"componentType":5126,
			"count":559,
			"max":[
				0.9999997019767761,
				1,
				0.9999993443489075
			],
			"min":[
				-0.9999990463256836,
				-1,
				-1
			],
			"type":"VEC3"
		},
		{
			"bufferView":1,
			"componentType":5126,
			"count":559,
			"type":"VEC3"
		},
		{
			"bufferView":2,
			"componentType":5126,
			"count":559,
			"type":"VEC2"
		},
		{
			"bufferView":3,
			"componentType":5123,
			"count":2880,
			"type":"SCALAR"
		},
		{
			"bufferView":4,
			"componentType":5126,
			"count":240,
			"max":[
				0.9510578513145447,
				1,
				0.9999999403953552
			],
			"min":[
				-0.9510578513145447,
				-1,
				-0.9999999403953552
			],
			"type":"VEC3"
		},
		{
			"bufferView":5,
			"componentType":5126,
			"count":240,
			"type":"VEC3"
		},
		{
			"bufferView":6,
			"componentType":5126,
			"count":240,
			"type":"VEC2"
		},
		{
			"bufferView":7,
			"componentType":5123,
			"count":240,
			"type":"SCALAR"
		},
		{
			"bufferView":8,
			"componentType":5126,
			"count":992,
			"max":[
				0.20000000298023224,
				2.999701976776123,
				0.19999998807907104
			],
			"min":[
				-0.19999998807907104,
				2.5997018814086914,
				-0.19999998807907104
			],
			"type":"VEC3"
		},
		{
			"bufferView":9,
			"componentType":5126,
			"count":992,
			"type":"VEC3"
		},
		{
			"bufferView":10,
			"componentType":5126,
			"count":992,
			"type":"VEC2"
		},
		{
			"bufferView":11,
			"componentType":5123,
			"count":1440,
			"type":"SCALAR"
		},
		{
			"bufferView":12,
			"componentType":5126,
			"count":992,
			"max":[
				0.20000000298023224,
				0.20000000298023224,
				0.19999998807907104
			],
			"min":[
				-0.19999998807907104,
				-0.20000000298023224,
				-0.19999998807907104
			],
			"type":"VEC3"
		},
		{
			"bufferView":13,
			"componentType":5126,
			"count":992,
			"type":"VEC3"
		},
		{
			"bufferView":14,
			"componentType":5126,
			"count":992,
			"type":"VEC2"
		},
		{
			"bufferView":15,
			"componentType":5123,
			"count":1440,
			"type":"SCALAR"
		},
		{
			"bufferView":16,
			"componentType":5126,
			"count":40,
			"max":[
				1.6666666666666667
			],
			"min":[
				0.041666666666666664
			],
			"type":"SCALAR"
		},
		{
			"bufferView":17,
			"componentType":5126,
			"count":40,
			"type":"VEC3"
		},
		{
			"bufferView":18,
			"componentType":5126,
			"count":40,
			"type":"VEC4"
		},
		{
			"bufferView":19,
			"componentType":5126,
			"count":40,
			"type":"VEC3"
		},
		{
			"bufferView":20,
			"componentType":5126,
			"count":40,
			"type":"VEC4"
		},
		{
			"bufferView":21,
			"componentType":5126,
			"count":2,
			"max":[
				1.6666666666666667
			],
			"min":[
				0.041666666666666664
			],
			"type":"SCALAR"
		},
		{
			"bufferView":22,
			"componentType":5126,
			"count":2,
			"type":"VEC3"
		},
		{
			"bufferView":23,
			"componentType":5126,
			"count":40,
			"type":"VEC3"
		},
		{
			"bufferView":24,
			"componentType":5126,
			"count":40,
			"type":"VEC4"
		},
		{
			"bufferView":25,
			"componentType":5126,
			"count":40,
			"type":"VEC3"
		},
		{
			"bufferView":26,
			"componentType":5126,
			"count":40,
			"type":"VEC3"
		},
		{
			"bufferView":27,
			"componentType":5126,
			"count":40,
			"type":"VEC4"
		},
		{
			"bufferView":28,
			"componentType":5126,
			"count":40,
			"type":"VEC3"
		},
		{
			"bufferView":29,
			"componentType":5126,
			"count":40,
			"type":"VEC3"
		},
		{
			"bufferView":30,
			"componentType":5126,
			"count":40,
			"type":"VEC4"
		},
		{
			"bufferView":31,
			"componentType":5126,
			"count":40,
			"type":"VEC3"
		},
		{
			"bufferView":32,
			"componentType":5126,
			"count":40,
			"type":"VEC3"
		},
		{
			"bufferView":33,
			"componentType":5126,
			"count":40,
			"type":"VEC4"
		},
		{
			"bufferView":34,
			"componentType":5126,
			"count":40,
			"type":"VEC3"
		},
		{
			"bufferView":35,
			"componentType":5126,
			"count":40,
			"type":"VEC3"
		},
		{
			"bufferView":36,
			"componentType":5126,
			"count":40,
			"type":"VEC4"
		},
		{
			"bufferView":37,
			"componentType":5126,
			"count":40,
			"type":"VEC3"
		},
		{
			"bufferView":38,
			"componentType":5126,
			"count":40,
			"type":"VEC3"
		},
		{
			"bufferView":39,
			"componentType":5126,
			"count":40,
			"type":"VEC4"
		},
		{
			"bufferView":40,
			"componentType":5126,
			"count":40,
			"type":"VEC3"
		},
		{
			"bufferView":41,
			"componentType":5126,
			"count":40,
			"type":"VEC3"
		},
		{
			"bufferView":42,
			"componentType":5126,
			"count":40,
			"type":"VEC4"
		},
		{
			"bufferView":43,
			"componentType":5126,
			"count":40,
			"type":"VEC3"
		}
	],
	"bufferViews":[
		{
			"buffer":0,
			"byteLength":6708,
			"byteOffset":0,
			"target":34962
		},
		{
			"buffer":0,
			"byteLength":6708,
			"byteOffset":6708,
			"target":34962
		},
		{
			"buffer":0,
			"byteLength":4472,
			"byteOffset":13416,
			"target":34962
		},
		{
			"buffer":0,
			"byteLength":5760,
			"byteOffset":17888,
			"target":34963
		},
		{
			"buffer":0,
			"byteLength":2880,
			"byteOffset":23648,
			"target":34962
		},
		{
			"buffer":0,
			"byteLength":2880,
			"byteOffset":26528,
			"target":34962
		},
		{
			"buffer":0,
			"byteLength":1920,
			"byteOffset":29408,
			"target":34962
		},
		{
			"buffer":0,
			"byteLength":480,
			"byteOffset":31328,
			"target":34963
		},
		{
			"buffer":0,
			"byteLength":11904,
			"byteOffset":31808,
			"target":34962
		},
		{
			"buffer":0,
			"byteLength":11904,
			"byteOffset":43712,
			"target":34962
		},
		{
			"buffer":0,
			"byteLength":7936,
			"byteOffset":55616,
			"target":34962
		},
		{
			"buffer":0,
			"byteLength":2880,
			"byteOffset":63552,
			"target":34963
		},
		{
			"buffer":0,
			"byteLength":11904,
			"byteOffset":66432,
			"target":34962
		},
		{
			"buffer":0,
			"byteLength":11904,
			"byteOffset":78336,
			"target":34962
		},
		{
			"buffer":0,
			"byteLength":7936,
			"byteOffset":90240,
			"target":34962
		},
		{
			"buffer":0,
			"byteLength":2880,
			"byteOffset":98176,
			"target":34963
		},
		{
			"buffer":0,
			"byteLength":160,
			"byteOffset":101056
		},
		{
			"buffer":0,
			"byteLength":480,
			"byteOffset":101216
		},
		{
			"buffer":0,
			"byteLength":640,
			"byteOffset":101696
		},
		{
			"buffer":0,
			"byteLength":480,
			"byteOffset":102336
		},
		{
			"buffer":0,
			"byteLength":640,
			"byteOffset":102816
		},
		{
			"buffer":0,
			"byteLength":8,
			"byteOffset":103456
		},
		{
			"buffer":0,
			"byteLength":24,
			"byteOffset":103464
		},
		{
			"buffer":0,
			"byteLength":480,
			"byteOffset":103488
		},
		{
			"buffer":0,
			"byteLength":640,
			"byteOffset":103968
		},
		{
			"buffer":0,
			"byteLength":480,
			"byteOffset":104608
		},
		{
			"buffer":0,
			"byteLength":480,
			"byteOffset":105088
		},
		{
			"buffer":0,
			"byteLength":640,
			"byteOffset":105568
		},
		{
			"buffer":0,
			"byteLength":480,
			"byteOffset":106208
		},
		{
			"buffer":0,
			"byteLength":480,
			"byteOffset":106688
		},
		{
			"buffer":0,
			"byteLength":640,
			"byteOffset":107168
		},
		{
			"buffer":0,
			"byteLength":480,
			"byteOffset":107808
		},
		{
			"buffer":0,
			"byteLength":480,
			"byteOffset":108288
		},
		{
			"buffer":0,
			"byteLength":640,
			"byteOffset":108768
		},
		{
			"buffer":0,
			"byteLength":480,
			"byteOffset":109408
		},
		{
			"buffer":0,
			"byteLength":480,
			"byteOffset":109888
		},
		{
			"buffer":0,
			"byteLength":640,
			"byteOffset":110368
		},
		{
			"buffer":0,
			"byteLength":480,
			"byteOffset":111008
		},
		{
			"buffer":0,
			"byteLength":480,
			"byteOffset":111488
		},
		{
			"buffer":0,
			"byteLength":640,
			"byteOffset":111968
		},
		{
			"buffer":0,
			"byteLength":480,
			"byteOffset":112608
		},
		{
			"buffer":0,
			"byteLength":480,
			"byteOffset":113088
		},
		{
			"buffer":0,
			"byteLength":640,
			"byteOffset":113568
		},
		{
			"buffer":0,
			"byteLength":480,
			"byteOffset":114208
		}
	],
	"buffers":[
		{
			"byteLength":114688,
			"uri":"data:application/octet-stream;base64,"
		}
	]
}
