{
	"asset":{
		"generator":"Khronos glTF Blender I/O v3.6.27",
		"version":"2.0"
	},
	"scene":0,
	"scenes":[
		{
			"name":"Scene",
			"nodes":[
				0,
				1,
				2
			]
		}
	],
	"nodes":[
		{
			"mesh":0,
			"name":"UPDOWN",
			"rotation":[
				0.7071068286895752,
				0,
				0,
				0.7071068286895752
			],
			"translation":[
				-1.2285908460617065,
				0,
				0
			]
		},
		{
			"mesh":1,
			"name":"Sphere-Pink",
			"scale":[
				0.4070199728012085,
				0.4070199728012085,
				0.4070199728012085
			],
			"translation":[
				-1.7326281070709229,
				0.37802785634994507,
				-0.17851313948631287
			]
		},
		{
			"mesh":2,
			"name":"Sphere-Blue",
			"scale":[
				0.4070199728012085,
				0.4070199728012085,
				0.4070199728012085
			],
			"translation":[
				-2.247166156768799,
				0.37802785634994507,
				0.12600935995578766
			]
		}
	],
	"materials":[
		{
			"doubleSided":true,
			"emissiveFactor":[
				0.009999999776482582,
				0.008781209987821947,
				0.005375034688971159
			],
			"name":"Material.001",
			"pbrMetallicRoughness":{
				"baseColorFactor":[
					1,
					0.9849013686180115,
					0.9849013686180115,
					1
				],
				"metallicFactor":0,
				"roughnessFactor":0.5
			}
		},
		{
			"doubleSided":true,
			"emissiveFactor":[
				0.009999999776482582,
				0.001659010760657248,
				0.003841899249511227
			],
			"name":"Material.003",
			"pbrMetallicRoughness":{
				"baseColorFactor":[
					0.8000000715255737,
					0.3288998305797577,
					0.5278835892677307,
					1
				],
				"metallicFactor":0,
				"roughnessFactor":0.5
			}
		},
		{
			"doubleSided":true,
			"emissiveFactor":[
				0.0015988462806005854,
				0.007825190846058927,
				0.009999999776482582
			],
			"name":"Material.004",
			"pbrMetallicRoughness":{
				"baseColorFactor":[
					0.2722916305065155,
					0.7106088399887085,
					0.8000000715255737,
					1
				],
				"metallicFactor":0,
				"roughnessFactor":0.5
			}
		}
	],
	"meshes":[
		{
			"name":"Text",
			"primitives":[
				{
					"attributes":{
						"POSITION":0,
						"NORMAL":1,
						"TEXCOORD_0":2
					},
					"indices":3,
					"material":0
				}
			]
		},
		{
			"name":"Sphere",
			"primitives":[
				{
					"attributes":{
						"POSITION":4,
						"NORMAL":5,
						"TEXCOORD_0":6
					},
					"indices":7,
					"material":1
				}
			]
		},
		{
			"name":"Sphere.001",
			"primitives":[
				{
					"attributes":{
						"POSITION":8,
						"NORMAL":9,
						"TEXCOORD_0":10
					},
					"indices":7,
					"material":2
				}
			]
		}
	],
	"accessors":[
		{
			"bufferView":0,
			"componentType":5126,
			"count":1246,
			"max":[
				4.578999996185303,
				0.1599999964237213,
				0.04907497391104698
			],
			"min":[
				0.02100004255771637,
				-0.1599999964237213,
				-0.7310730218887329
			],
			"type":"VEC3"
		},
		{
			"bufferView":1,
			"componentType":5126,
			"count":1246,
			"type":"VEC3"
		},
		{
			"bufferView":2,
			"componentType":5126,
			"count":1246,
			"type":"VEC2"
		},
		{
			"bufferView":3,
			"componentType":5123,
			"count":3648,
			"type":"SCALAR"
		},
		{
			"bufferView":4,
			"componentType":5126,
			"count":1984,
			"max":[
				0.9999997019767761,
				1,
				0.9999993443489075
			],
			"min":[
				-0.9999990463256836,
				-1,
				-1
			],
			"type":"VEC3"
		},
		{
			"bufferView":5,
			"componentType":5126,
			"count":1984,
			"type":"VEC3"
		},
		{
			"bufferView":6,
			"componentType":5126,
			"count":1984,
			"type":"VEC2"
		},
		{
			"bufferView":7,
			"componentType":5123,
			"count":2880,
			"type":"SCALAR"
		},
		{
			"bufferView":8,
			"componentType":5126,
			"count":1984,
			"max":[
				0.9999997019767761,
				1,
				0.9999993443489075
			],
			"min":[
				-0.9999990463256836,
				-1,
				-1
			],
			"type":"VEC3"
		},
		{
			"bufferView":9,
			"componentType":5126,
			"count":1984,
			"type":"VEC3"
		},
		{
			"bufferView":10,
			"componentType":5126,
			"count":1984,
			"type":"VEC2"
		}
	],
	"bufferViews":[
		{
			"buffer":0,
			"byteLength":14952,
			"byteOffset":0,
			"target":34962
		},
		{
			"buffer":0,
			"byteLength":14952,
			"byteOffset":14952,
			"target":34962
		},
		{
			"buffer":0,
			"byteLength":9968,
			"byteOffset":29904,
			"target":34962
		},
		{
			"buffer":0,
			"byteLength":7296,
			"byteOffset":39872,
			"target":34963
		},
		{
			"buffer":0,
			"byteLength":23808,
			"byteOffset":47168,
			"target":34962
		},
		{
			"buffer":0,
			"byteLength":23808,
			"byteOffset":70976,
			"target":34962
		},
		{
			"buffer":0,
			"byteLength":15872,
			"byteOffset":94784,
			"target":34962
		},
		{
			"buffer":0,
			"byteLength":5760,
			"byteOffset":110656,
			"target":34963
		},
		{
			"buffer":0,
			"byteLength":23808,
			"byteOffset":116416,
			"target":34962
		},
		{
			"buffer":0,
			"byteLength":23808,
			"byteOffset":140224,
			"target":34962
		},
		{
			"buffer":0,
			"byteLength":15872,
			"byteOffset":164032,
			"target":34962
		}
	],
	"buffers":[
		{
			"byteLength":179904,
			"uri":"data:application/octet-stream;base64,"
		}
	]
}
