{
	"asset":{
		"generator":"Khronos glTF Blender I/O v3.6.27",
		"version":"2.0"
	},
	"scene":0,
	"scenes":[
		{
			"name":"Scene",
			"nodes":[
				3
			]
		}
	],
	"nodes":[
		{
			"mesh":0,
			"name":"Plane_0"
		},
		{
			"children":[
				0
			],
			"name":"Plane",
			"scale":[
				2.9803099632263184,
				2.9803099632263184,
				2.9803099632263184
			]
		},
		{
			"children":[
				1
			],
			"name":"Root"
		},
		{
			"children":[
				2
			],
			"name":"Sketchfab_model",
			"rotation":[
				-0.70710688829422,
				0,
				0,
				0.7071066498756409
			]
		}
	],
	"animations":[
		{
			"channels":[
				{
					"sampler":0,
					"target":{
						"node":1,
						"path":"rotation"
					}
				}
			],
			"name":"PlaneAction",
			"samplers":[
				{
					"input":4,
					"interpolation":"LINEAR",
					"output":5
				}
			]
		}
	],
	"materials":[
		{
			"alphaMode":"BLEND",
			"doubleSided":true,
			"name":"Material.001",
			"pbrMetallicRoughness":{}
		}
	],
	"meshes":[
		{
			"name":"Plane_0",
			"primitives":[
				{
					"attributes":{
						"POSITION":0,
						"NORMAL":1,
						"TEXCOORD_0":2
					},
					"indices":3,
					"material":0
				}
			]
		}
	],
	"accessors":[
		{
			"bufferView":0,
			"componentType":5126,
			"count":183,
			"max":[
				1.3230899572372437,
				1.3230899572372437,
				0.2148600071668625
			],
			"min":[
				-1.3230899572372437,
				-1.3230899572372437,
				0.010850000195205212
			],
			"type":"VEC3"
		},
		{
			"bufferView":1,
			"componentType":5126,
			"count":183,
			"type":"VEC3"
		},
		{
			"bufferView":2,
			"componentType":5126,
			"count":183,
			"type":"VEC2"
		},
		{
			"bufferView":3,
			"componentType":5123,
			"count":267,
			"type":"SCALAR"
		},
		{
			"bufferView":4,
			"componentType":5126,
			"count":139,
			"max":[
				5.791666666666667
			],
			"min":[
				0.041666666666666664
			],
			"type":"SCALAR"
		},
		{
			"bufferView":5,
			"componentType":5126,
			"count":139,
			"type":"VEC4"
		}
	],
	"bufferViews":[
		{
			"buffer":0,
			"byteLength":2196,
			"byteOffset":0,
			"target":34962
		},
		{
			"buffer":0,
			"byteLength":2196,
			"byteOffset":2196,
			"target":34962
		},
		{
			"buffer":0,
			"byteLength":1464,
			"byteOffset":4392,
			"target":34962
		},
		{
			"buffer":0,
			"byteLength":534,
			"byteOffset":5856,
			"target":34963
		},
		{
			"buffer":0,
			"byteLength":556,
			"byteOffset":6392
		},
		{
			"buffer":0,
			"byteLength":2224,
			"byteOffset":6948
		}
	],
	"buffers":[
		{
			"byteLength":9172,
			"uri":"ring-1.bin"
		}
	]
}
